<svg width="2432" height="1471" viewBox="0 0 2432 1471" fill="none" xmlns="http://www.w3.org/2000/svg">
<circle cx="519.5" cy="638.499" r="519.5" fill="url(#paint0_linear_1_1895)"/>
<path opacity="0.5" d="M1521.73 1470.34L1928.08 95.078L1689.97 137.068L1352.13 1280.42L1521.73 1470.34Z" fill="white" fill-opacity="0.11"/>
<path d="M1954.19 750.459L1953.29 751.113C1949.61 753.647 1947.56 760.514 1949.36 764.438C1951.25 768.689 1955.91 771.713 1960.33 771.713C1964.18 771.713 1969.17 769.179 1971.3 764.356C1971.79 763.293 1972.03 762.067 1972.03 760.759C1972.03 756.917 1969.99 752.503 1966.88 750.459C1965.81 749.723 1964.67 749.151 1963.52 748.497L1962.05 747.679C1961.64 747.434 1961.15 747.352 1960.66 747.434C1960.41 747.434 1960.17 747.434 1959.92 747.434C1957.55 748.088 1955.75 749.396 1954.19 750.459ZM1961.23 752.83C1962.29 753.402 1963.28 753.892 1964.26 754.546C1966.47 756.018 1968.02 760.35 1966.96 762.558C1965.65 765.419 1962.54 767.054 1960.25 767.054C1958.04 767.054 1954.93 765.5 1953.54 762.476C1953.37 762.067 1953.29 761.577 1953.29 761.004C1953.29 758.879 1954.44 755.936 1955.83 754.955L1956.81 754.301C1958.04 753.402 1959.1 752.666 1960.33 752.339L1961.23 752.83ZM1934.55 1070.26C1930.95 1072.38 1927.35 1074.59 1923.67 1076.63L1919.08 1079.25C1914.91 1081.62 1910.82 1083.91 1906.73 1086.36C1902.31 1088.98 1901.41 1092 1901.49 1095.93C1901.57 1114.32 1901.57 1132.96 1901.49 1151.27C1901.57 1155.44 1902.39 1158.38 1906.89 1160.83C1915.89 1165.74 1924.89 1171.05 1933.65 1176.2C1936.92 1178.17 1940.28 1180.13 1943.55 1182.01L1955.09 1188.79C1958.69 1190.92 1962.38 1190.84 1965.89 1188.79C1971.13 1185.6 1976.45 1182.58 1981.77 1179.55C1986.76 1176.69 1991.76 1173.83 1996.67 1170.89C1999.2 1169.42 2001.74 1167.95 2004.28 1166.48C2007.55 1164.76 2010.82 1162.88 2014.1 1160.83C2018.44 1158.14 2019.42 1155.28 2019.34 1151.27C2019.25 1132.88 2019.25 1114.24 2019.34 1095.93L2019.34 1095.76C2019.34 1091.84 2018.44 1088.9 2014.02 1086.36C2008.21 1083.09 2002.48 1079.74 1996.67 1076.39C1990.04 1072.55 1983.41 1068.79 1976.78 1064.94C1975.22 1064.04 1973.75 1063.15 1972.2 1062.25C1968.92 1060.28 1965.49 1058.32 1961.97 1056.52C1961.56 1056.28 1961.07 1056.28 1960.66 1056.28C1960.25 1056.2 1959.84 1056.28 1959.43 1056.44C1950.67 1060.61 1942.49 1065.52 1934.55 1070.26ZM1969.74 1066.42C1971.3 1067.31 1972.85 1068.21 1974.41 1069.11C1981.03 1072.87 1987.66 1076.72 1994.29 1080.48C2000.1 1083.83 2005.83 1087.1 2011.64 1090.45C2014.18 1091.84 2014.59 1093.07 2014.59 1095.76L2014.59 1095.93C2014.51 1105.08 2014.51 1114.4 2014.51 1123.64C2014.51 1132.88 2014.51 1142.2 2014.59 1151.35C2014.67 1154.05 2014.18 1155.28 2011.64 1156.83C2008.45 1158.79 2005.18 1160.67 2001.99 1162.47C1999.37 1163.94 1996.75 1165.41 1994.21 1166.88C1989.3 1169.83 1984.39 1172.61 1979.4 1175.47C1974.08 1178.57 1968.68 1181.6 1963.44 1184.79C1961.48 1186.01 1959.51 1186.01 1957.47 1184.79L1945.93 1178C1942.65 1176.04 1939.3 1174.16 1936.02 1172.2C1927.27 1167.05 1918.26 1161.65 1909.1 1156.75C1906.56 1155.36 1906.07 1154.29 1906.15 1151.35C1906.23 1132.96 1906.23 1114.32 1906.15 1095.93C1906.15 1093.15 1906.56 1091.92 1909.1 1090.45C1913.19 1088.08 1917.28 1085.71 1921.37 1083.42L1925.96 1080.8C1929.64 1078.68 1933.24 1076.55 1936.92 1074.34C1944.53 1069.77 1952.39 1065.11 1960.58 1061.27C1963.69 1062.9 1966.8 1064.7 1969.74 1066.42ZM1285.41 924.092C1285.65 920.004 1285.98 915.835 1285.16 911.257C1284.84 909.377 1284.43 907.415 1281.56 905.617C1268.71 897.769 1255.7 890.493 1244.74 884.362C1242.93 883.381 1241.13 882.237 1239.42 881.092C1235.65 878.64 1231.64 876.106 1226.98 874.716C1226.65 874.634 1226.32 874.634 1226.08 874.634C1225.67 874.552 1225.26 874.634 1224.85 874.879C1216.5 878.722 1208.56 883.545 1200.87 888.123C1196.61 890.657 1192.19 893.273 1187.78 895.725L1192.52 898.505C1196.12 896.461 1199.72 894.336 1203.24 892.21C1210.61 887.796 1218.3 883.218 1226.24 879.539C1230 880.765 1233.36 882.891 1236.88 885.18C1238.68 886.406 1240.56 887.55 1242.44 888.613C1253.41 894.744 1266.34 902.02 1279.11 909.786C1280.25 910.44 1280.25 910.685 1280.58 912.565C1281.24 916.244 1280.99 920.004 1280.74 923.928C1280.58 926.054 1280.5 928.179 1280.5 930.305C1280.5 930.55 1280.5 930.795 1280.5 930.959C1280.58 937.008 1280.58 943.139 1280.58 949.27L1285.33 952.05C1285.25 944.938 1285.33 937.907 1285.25 930.959C1285.08 928.506 1285.25 926.299 1285.41 924.092ZM1447.2 946.164C1447.53 945.101 1447.69 944.038 1447.69 942.894C1447.69 938.807 1445.65 934.392 1442.46 932.43C1442.13 932.185 1441.72 931.94 1441.39 931.776C1440 930.877 1438.45 929.814 1436.48 929.487C1436.32 929.487 1436.16 929.487 1435.99 929.487C1434.03 928.997 1432.64 930.223 1431.9 930.877C1425.27 934.392 1422.98 939.706 1425.11 946.573C1426.5 951.232 1431.08 952.622 1434.44 953.685L1434.93 953.848C1438.77 954.993 1446.22 949.025 1447.2 946.164ZM1435.75 949.107C1432.39 948.126 1430.18 947.308 1429.53 945.183C1429.2 944.038 1428.95 942.976 1428.95 941.995C1428.95 939.052 1430.59 936.845 1434.03 935.046C1434.44 934.801 1434.76 934.556 1435.17 934.229C1435.34 934.229 1435.5 934.229 1435.75 934.229C1436.73 934.392 1437.71 935.046 1438.77 935.782C1439.18 936.027 1439.59 936.354 1440 936.599C1442.13 937.907 1443.52 942.24 1442.7 944.692C1442.05 946.082 1437.38 949.352 1436.24 949.434L1435.75 949.107ZM2006.08 913.546C2006.24 933.084 2006.32 950.66 2006 968.399C2006 973.795 2007.88 977.392 2012.54 980.008C2016.39 982.051 2020.15 984.177 2023.92 986.302L2023.92 980.907C2020.89 979.19 2017.86 977.473 2014.83 975.757C2011.64 974.04 2010.5 972.16 2010.74 968.399C2011.07 950.66 2010.99 933.002 2010.82 913.465C2010.82 910.685 2011.4 909.704 2013.28 908.723C2016.96 906.843 2020.64 904.799 2024 902.919L2024 897.442C2020.07 899.731 2015.65 902.183 2011.15 904.554C2006.57 906.843 2006 910.44 2006.08 913.546ZM1599.67 1095.76C1599.67 1091.84 1598.77 1088.9 1594.35 1086.36C1588.54 1083.01 1582.73 1079.66 1576.92 1076.31C1570.37 1072.55 1563.74 1068.7 1557.19 1064.94C1555.64 1064.04 1554.17 1063.15 1552.61 1062.25C1549.34 1060.28 1545.9 1058.32 1542.38 1056.52C1541.97 1056.28 1541.48 1056.28 1541.07 1056.28C1540.66 1056.2 1540.25 1056.28 1539.84 1056.44C1531.17 1060.37 1522.99 1065.35 1514.97 1070.09C1511.36 1072.22 1507.76 1074.43 1504.08 1076.47L1502.94 1077.12L1507.68 1079.82C1510.96 1077.94 1514.15 1076.06 1517.42 1074.1C1525.03 1069.52 1532.89 1064.86 1541.07 1061.02C1544.18 1062.57 1547.29 1064.37 1550.24 1066.17C1551.79 1067.07 1553.35 1067.97 1554.9 1068.87C1561.53 1072.63 1568.08 1076.39 1574.63 1080.15C1580.44 1083.5 1586.25 1086.85 1592.14 1090.2C1594.68 1091.68 1595 1092.9 1595.09 1095.6C1595 1104.76 1595 1114.07 1595 1123.31C1595 1125.6 1595 1127.81 1595 1130.1L1599.75 1132.79C1599.75 1120.37 1599.75 1107.94 1599.83 1095.6L1599.83 1095.76L1599.67 1095.76ZM1472.25 988.836L1476.01 986.629C1480.18 984.258 1485.09 981.397 1490 978.863C1494.51 976.574 1495.08 972.896 1495 969.871C1494.83 950.333 1494.75 932.757 1495.08 915.1C1495.08 914.936 1495.08 914.854 1495.08 914.691C1495.08 909.377 1493.11 906.026 1488.53 903.491C1477.57 897.442 1466.68 891.147 1455.8 884.935L1454.57 884.199C1453.01 883.3 1451.46 882.4 1449.99 881.501C1446.06 879.13 1441.97 876.76 1437.71 874.716C1437.3 874.552 1436.89 874.471 1436.48 874.471C1436.32 874.471 1436.16 874.471 1435.99 874.471C1431.65 874.879 1428.3 877.168 1425.35 879.212C1424.12 880.111 1422.9 880.929 1421.59 881.665C1417 884.117 1412.42 886.896 1408.08 889.512C1401.29 893.6 1394.25 897.769 1387.05 901.121C1376.33 906.026 1375.92 914.364 1376.41 922.457C1377.15 934.883 1377.15 947.799 1376.41 960.879C1376.25 964.148 1376.49 967.418 1376.74 970.525L1376.9 973.141C1377.07 975.675 1378.87 976.738 1380.01 977.392L1380.5 977.719C1386.81 981.724 1393.44 985.485 1399.82 989.082C1405.38 992.27 1411.19 995.54 1416.76 998.973C1418.48 1000.04 1420.2 1000.94 1422 1001.92C1424.37 1003.14 1426.58 1004.37 1428.63 1005.84C1433.21 1009.11 1437.55 1009.27 1442.29 1006.41C1452.03 1000.53 1462.34 994.559 1472.25 988.836ZM1431.16 1002.08C1428.87 1000.44 1426.42 999.137 1424.04 997.829C1422.41 996.929 1420.69 996.03 1419.13 995.049C1413.49 991.534 1407.68 988.264 1402.03 984.994C1395.73 981.397 1389.18 977.719 1382.96 973.713L1382.39 973.386C1382.06 973.223 1381.65 972.896 1381.57 972.814L1381.41 970.116C1381.16 967.01 1380.91 963.985 1381.08 961.042C1381.81 947.799 1381.81 934.719 1381.08 922.13C1380.67 914.609 1380.91 908.968 1388.93 905.29C1396.38 901.856 1403.5 897.605 1410.46 893.436C1414.8 890.82 1419.3 888.123 1423.8 885.67C1425.27 884.853 1426.66 883.954 1428.05 882.973C1430.75 881.174 1433.21 879.376 1436.24 879.049C1440.17 880.929 1443.93 883.136 1447.61 885.343C1449.17 886.242 1450.72 887.223 1452.28 888.123L1453.5 888.858C1464.39 895.153 1475.36 901.366 1486.32 907.497C1489.51 909.214 1490.5 911.094 1490.41 914.854C1490.25 923.438 1490.17 931.94 1490.17 940.687C1490.17 950.088 1490.25 959.652 1490.33 969.789C1490.33 972.569 1489.76 973.55 1487.88 974.531C1482.8 977.146 1477.81 980.008 1473.64 982.378L1469.87 984.585C1459.89 990.308 1449.66 996.275 1439.59 1002.32C1436.48 1004.37 1434.19 1004.29 1431.16 1002.08ZM1954.19 1114.24L1953.29 1114.89C1949.61 1117.43 1947.56 1124.29 1949.36 1128.22C1951.25 1132.47 1955.91 1135.49 1960.33 1135.49C1964.18 1135.49 1969.17 1132.96 1971.3 1128.14C1971.79 1127.07 1972.03 1125.85 1972.03 1124.54C1972.03 1120.7 1969.99 1116.28 1966.88 1114.24C1965.81 1113.5 1964.67 1112.93 1963.44 1112.28L1961.97 1111.54C1961.56 1111.3 1961.07 1111.21 1960.58 1111.3C1960.33 1111.3 1960.08 1111.3 1959.84 1111.3C1957.55 1111.87 1955.75 1113.09 1954.19 1114.24ZM1961.23 1116.53C1962.29 1117.1 1963.28 1117.67 1964.26 1118.24C1966.47 1119.63 1967.94 1124.05 1966.96 1126.26C1965.65 1129.12 1962.54 1130.75 1960.25 1130.75C1958.04 1130.75 1954.93 1129.2 1953.54 1126.17C1953.37 1125.76 1953.29 1125.27 1953.29 1124.7C1953.29 1122.58 1954.44 1119.63 1955.83 1118.65L1956.89 1118.08C1958.12 1117.18 1959.18 1116.45 1960.41 1116.12L1961.23 1116.53ZM1761.87 1126.01C1761.95 1125.19 1762.04 1124.46 1762.04 1123.72C1762.04 1115.06 1754.51 1112.36 1751.89 1111.46C1751.56 1111.3 1751.15 1111.3 1750.82 1111.38C1750.74 1111.38 1750.74 1111.38 1750.66 1111.38C1749.02 1111.3 1747.8 1112.03 1747.06 1112.6C1746.81 1112.77 1746.4 1113.01 1746.24 1113.01C1738.14 1115.3 1739.04 1121.76 1739.69 1126.01L1739.94 1127.56C1740.43 1131.9 1743.95 1133.37 1746.24 1134.35C1746.98 1134.68 1747.71 1135 1748.37 1135.41C1749.35 1136.06 1751.07 1136.56 1753.61 1135.33C1757.04 1133.69 1761.38 1129.36 1761.87 1126.01ZM1748.04 1130.02C1745.67 1129.03 1744.77 1128.46 1744.6 1126.99L1744.36 1125.27C1744.19 1123.88 1744.03 1122.66 1744.03 1121.76C1744.03 1119.39 1744.85 1118.24 1747.55 1117.51C1748.45 1117.26 1749.1 1116.85 1749.6 1116.45C1749.84 1116.28 1750.33 1115.95 1750.41 1115.95C1750.5 1115.95 1750.58 1115.95 1750.66 1115.95C1755.98 1117.92 1757.86 1120.61 1757.21 1125.27C1756.96 1127.07 1752.3 1131.32 1750.91 1131.24C1750.09 1130.83 1749.1 1130.42 1748.04 1130.02ZM2011.07 1268.33C2006.65 1270.7 2006.16 1274.22 2006.08 1277.24C2006.16 1292.53 2006.32 1312.72 2006.08 1333.08C2006.16 1337.82 2007.71 1340.68 2012.05 1343.13C2015.98 1345.42 2019.99 1347.71 2023.92 1350L2023.92 1344.52C2020.73 1342.72 2017.53 1340.84 2014.34 1339.05C2011.56 1337.49 2010.74 1336.18 2010.82 1333.24C2011.07 1312.8 2010.99 1292.61 2010.82 1277.24C2010.91 1274.46 2011.4 1273.48 2013.28 1272.5C2016.06 1271.03 2018.76 1269.48 2021.54 1267.84C2022.36 1267.35 2023.18 1266.94 2024 1266.45L2024 1260.98C2022.36 1261.88 2020.81 1262.77 2019.17 1263.76C2016.47 1265.39 2013.77 1266.86 2011.07 1268.33ZM1914.75 1278.88C1914.75 1278.72 1914.75 1278.63 1914.75 1278.47C1914.75 1273.16 1912.78 1269.8 1908.2 1267.27C1897.07 1261.14 1885.94 1254.68 1875.05 1248.47L1874.15 1247.98C1872.6 1247.08 1871.04 1246.18 1869.49 1245.28C1865.56 1242.91 1861.47 1240.54 1857.21 1238.5C1856.8 1238.33 1856.4 1238.25 1855.99 1238.25C1855.82 1238.25 1855.66 1238.25 1855.49 1238.25C1851.16 1238.66 1847.8 1240.95 1844.86 1242.99C1843.63 1243.89 1842.4 1244.71 1841.09 1245.44C1836.51 1247.9 1831.93 1250.68 1827.59 1253.29C1824.4 1255.17 1821.2 1257.13 1817.93 1258.93L1822.68 1261.63C1825.13 1260.16 1827.59 1258.77 1830.04 1257.3C1834.38 1254.68 1838.88 1251.98 1843.38 1249.53C1844.86 1248.71 1846.25 1247.81 1847.64 1246.83C1850.34 1245.04 1852.79 1243.24 1855.82 1242.91C1859.75 1244.79 1863.51 1247 1867.2 1249.2C1868.75 1250.1 1870.31 1251.08 1871.86 1251.98L1872.76 1252.47C1883.57 1258.69 1894.78 1265.15 1905.91 1271.28C1909.1 1272.99 1910.16 1274.79 1910 1278.63C1909.84 1287.3 1909.75 1296.05 1909.75 1304.63C1909.75 1307.08 1909.75 1309.45 1909.75 1311.91L1914.5 1314.6C1914.5 1303.08 1914.5 1290.98 1914.75 1278.88ZM1762.44 1185.2C1775.46 1177.43 1788.96 1169.34 1802.55 1161.98C1807.78 1159.12 1810.07 1155.6 1810.07 1149.96C1810.07 1149.72 1810.07 1149.47 1810.07 1149.14C1809.75 1139.66 1809.58 1129.44 1809.5 1116.85C1809.58 1111.21 1809.67 1105.08 1809.99 1097.15C1810.24 1092.08 1808.27 1088.49 1804.1 1086.03C1793.3 1079.9 1782.5 1073.69 1771.69 1067.48L1754.92 1057.83C1754.26 1057.42 1753.52 1057.18 1752.79 1056.93L1752.05 1056.69C1751.64 1056.52 1751.31 1056.52 1750.91 1056.52C1750.74 1056.52 1750.5 1056.52 1750.33 1056.52C1746.81 1057.01 1744.11 1058.89 1741.74 1060.53C1740.68 1061.27 1739.69 1062 1738.55 1062.57C1732.66 1065.76 1726.76 1069.19 1721.12 1072.55C1713.59 1076.96 1705.73 1081.54 1697.79 1085.54C1693.05 1087.92 1690.75 1091.92 1691.16 1097.64C1691.65 1107.86 1691.74 1117.92 1691.74 1127.32C1691.74 1134.68 1691.57 1141.95 1691.16 1149.14C1690.75 1155.19 1693.05 1158.95 1698.61 1161.98C1712.2 1169.34 1725.7 1177.43 1738.71 1185.28L1744.03 1188.38C1748.45 1191 1752.54 1191 1756.96 1188.38L1762.44 1185.2ZM1746.49 1184.38L1741.08 1181.19C1727.99 1173.34 1714.41 1165.25 1700.82 1157.81C1697.14 1155.77 1695.83 1153.89 1695.83 1150.29C1695.83 1149.96 1695.83 1149.72 1695.83 1149.39C1696.24 1142.11 1696.32 1134.68 1696.4 1127.32C1696.4 1117.84 1696.32 1107.7 1695.83 1097.4C1695.66 1093.47 1696.81 1091.19 1699.84 1089.71C1707.94 1085.71 1715.8 1081.05 1723.41 1076.55C1729.05 1073.2 1734.87 1069.85 1740.68 1066.66C1741.9 1066.01 1743.13 1065.19 1744.28 1064.37C1746.4 1062.9 1748.37 1061.59 1750.66 1061.18L1751.07 1061.35C1751.56 1061.51 1752.05 1061.67 1752.46 1061.92L1769.24 1071.57C1780.04 1077.78 1790.84 1083.99 1801.73 1090.12C1804.43 1091.68 1805.41 1093.56 1805.25 1096.91C1804.84 1105 1804.76 1111.21 1804.76 1116.85C1804.84 1129.52 1805 1139.83 1805.33 1149.31C1805.49 1153.64 1804.26 1155.6 1800.34 1157.81C1786.67 1165.25 1773.17 1173.34 1760.07 1181.19L1754.67 1184.38C1751.64 1186.09 1749.43 1186.09 1746.49 1184.38ZM2011.07 540.857C2006.65 543.227 2006.16 546.742 2006.08 549.767C2006.16 565.054 2006.32 585.246 2006.08 605.601C2006.16 610.261 2007.71 613.204 2012.05 615.656C2016.06 617.863 2019.99 620.152 2023.92 622.441L2023.92 616.964C2020.73 615.166 2017.53 613.285 2014.34 611.487C2011.56 609.934 2010.74 608.708 2010.82 605.683C2011.07 585.246 2010.99 565.054 2010.82 549.685C2010.91 546.906 2011.4 545.925 2013.28 544.944C2016.06 543.473 2018.76 541.919 2021.54 540.284C2022.36 539.794 2023.18 539.385 2024 538.895L2024 533.418C2022.36 534.317 2020.81 535.216 2019.17 536.197C2016.47 537.832 2013.77 539.385 2011.07 540.857ZM1844.69 582.793C1846.08 587.453 1850.67 588.843 1854.02 589.906L1854.51 590.069C1858.36 591.213 1865.81 585.246 1866.79 582.466C1867.12 581.404 1867.28 580.341 1867.28 579.197C1867.28 575.109 1865.23 570.695 1862.04 568.733C1861.71 568.488 1861.31 568.242 1860.98 568.079C1859.59 567.179 1858.03 566.117 1856.07 565.79C1855.9 565.79 1855.74 565.79 1855.49 565.79C1853.53 565.299 1852.14 566.525 1851.4 567.179C1844.94 570.613 1842.56 575.927 1844.69 582.793ZM1855.41 570.368C1856.4 570.531 1857.38 571.185 1858.44 571.921C1858.85 572.166 1859.26 572.493 1859.67 572.738C1861.8 574.046 1863.19 578.379 1862.37 580.831C1861.71 582.221 1857.05 585.491 1855.9 585.573L1855.41 585.409C1852.06 584.428 1849.85 583.611 1849.19 581.485C1848.87 580.341 1848.7 579.278 1848.7 578.297C1848.7 575.354 1850.34 573.147 1853.78 571.349C1854.19 571.103 1854.51 570.858 1854.92 570.531C1855.09 570.449 1855.25 570.449 1855.41 570.368ZM1934.47 706.56C1930.87 708.686 1927.27 710.893 1923.67 712.936L1919.08 715.552C1914.99 717.923 1910.82 720.212 1906.73 722.664C1902.39 725.28 1901.49 728.142 1901.49 732.065L1901.49 732.229C1901.57 750.622 1901.57 769.261 1901.49 787.572C1901.57 791.823 1902.39 794.685 1906.89 797.137C1915.89 802.042 1924.89 807.356 1933.65 812.506C1936.92 814.468 1940.2 816.43 1943.55 818.31L1955.09 825.095C1958.69 827.22 1962.38 827.139 1965.89 825.095C1971.13 821.907 1976.45 818.882 1981.77 815.857C1986.76 812.996 1991.76 810.135 1996.67 807.192C1999.2 805.721 2001.74 804.249 2004.28 802.778C2007.55 800.979 2010.82 799.099 2014.1 797.055C2018.44 794.358 2019.42 791.496 2019.34 787.491C2019.25 769.097 2019.25 750.459 2019.34 732.147L2019.34 731.984C2019.34 728.06 2018.44 725.117 2014.02 722.583C2008.21 719.313 2002.48 715.961 1996.67 712.609C1990.04 708.767 1983.41 705.007 1976.78 701.165C1975.22 700.265 1973.75 699.366 1972.2 698.467C1968.92 696.505 1965.49 694.543 1961.97 692.745C1961.56 692.499 1961.07 692.499 1960.66 692.499C1960.25 692.418 1959.84 692.499 1959.43 692.663C1950.67 696.832 1942.49 701.819 1934.47 706.56ZM1969.74 702.718C1971.3 703.617 1972.85 704.516 1974.41 705.416C1981.03 709.176 1987.66 713.018 1994.29 716.779C2000.1 720.13 2005.83 723.4 2011.64 726.752C2014.18 728.223 2014.75 729.286 2014.59 732.147C2014.51 741.303 2014.51 750.622 2014.51 759.86C2014.51 769.097 2014.51 778.417 2014.59 787.573C2014.67 790.27 2014.18 791.496 2011.64 793.05C2008.45 795.012 2005.18 796.892 2001.99 798.69C1999.37 800.162 1996.75 801.633 1994.21 803.105C1989.3 806.048 1984.39 808.909 1979.4 811.688C1974.08 814.713 1968.68 817.819 1963.44 821.008C1961.48 822.234 1959.51 822.234 1957.47 821.008L1945.93 814.222C1942.65 812.26 1939.38 810.38 1936.02 808.418C1927.27 803.268 1918.18 797.873 1909.1 792.886C1906.56 791.496 1906.07 790.434 1906.15 787.491C1906.23 769.097 1906.23 750.459 1906.15 732.065C1906.15 729.368 1906.56 728.06 1909.1 726.588C1913.19 724.218 1917.28 721.847 1921.37 719.558L1925.96 716.942C1929.64 714.817 1933.24 712.691 1936.92 710.484C1944.54 705.906 1952.39 701.246 1960.58 697.404C1963.69 699.121 1966.8 700.919 1969.74 702.718ZM1841.01 881.746C1836.43 884.199 1831.84 886.978 1827.42 889.594C1820.63 893.682 1813.59 897.851 1806.39 901.202C1795.67 906.107 1795.26 914.446 1795.75 922.539C1796.49 934.964 1796.49 947.881 1795.75 960.96C1795.59 964.23 1795.83 967.418 1796.08 970.525L1796.24 973.223C1796.41 975.757 1798.21 976.819 1799.35 977.473L1799.84 977.8C1806.15 981.806 1812.78 985.567 1819.16 989.163C1824.72 992.352 1830.53 995.622 1836.1 999.055C1837.82 1000.12 1839.54 1001.02 1841.34 1002C1843.71 1003.22 1845.92 1004.45 1847.97 1005.92C1852.55 1009.19 1856.89 1009.36 1861.63 1006.49C1871.54 1000.53 1881.52 994.722 1891.59 988.918L1895.6 986.629C1899.77 984.259 1904.68 981.397 1909.59 978.863C1914.09 976.574 1914.58 972.814 1914.58 969.871C1914.42 952.949 1914.34 933.82 1914.66 915.1C1914.66 914.936 1914.66 914.854 1914.66 914.691C1914.66 909.377 1912.7 906.026 1908.12 903.491C1896.91 897.279 1885.61 890.82 1874.73 884.526L1874.15 884.199C1872.6 883.3 1871.04 882.4 1869.49 881.501C1865.56 879.13 1861.47 876.76 1857.21 874.716C1856.8 874.553 1856.4 874.471 1855.99 874.471C1855.82 874.471 1855.66 874.471 1855.49 874.471C1851.16 874.88 1847.8 877.168 1844.86 879.212C1843.63 880.193 1842.4 881.011 1841.01 881.746ZM1867.12 885.589C1868.67 886.488 1870.23 887.469 1871.86 888.368L1872.44 888.695C1883.4 894.99 1894.7 901.448 1905.91 907.661C1909.1 909.377 1910.16 911.257 1910 915.018C1909.84 923.683 1909.75 932.43 1909.75 941.014C1909.75 951.069 1909.84 960.879 1909.92 969.953C1909.92 972.569 1909.34 973.713 1907.46 974.694C1902.39 977.31 1897.4 980.089 1893.22 982.542L1889.21 984.831C1879.15 990.635 1869.16 996.439 1859.18 1002.41C1855.99 1004.29 1853.78 1004.21 1850.67 1002C1848.37 1000.36 1845.92 999.055 1843.55 997.747C1841.91 996.848 1840.19 995.949 1838.64 994.968C1832.99 991.452 1827.18 988.182 1821.53 984.913C1815.23 981.316 1808.68 977.637 1802.46 973.631L1801.89 973.223C1801.56 973.059 1801.15 972.732 1801.07 972.732L1800.91 969.953C1800.66 966.846 1800.5 963.903 1800.58 960.96C1801.32 947.717 1801.32 934.556 1800.58 922.048C1800.17 914.527 1800.42 908.887 1808.44 905.208C1815.89 901.775 1823.01 897.524 1829.96 893.355C1834.3 890.739 1838.8 888.041 1843.3 885.589C1844.77 884.771 1846.17 883.872 1847.56 882.891C1850.26 881.092 1852.71 879.294 1855.74 878.967C1859.67 881.174 1863.43 883.381 1867.12 885.589ZM1746.24 749.233C1738.14 751.522 1739.04 757.98 1739.69 762.231L1739.94 763.784C1740.43 768.116 1743.95 769.588 1746.24 770.569C1746.98 770.896 1747.71 771.223 1748.37 771.55C1749.35 772.204 1751.07 772.694 1753.61 771.468C1757.04 769.915 1761.46 765.501 1761.87 762.231C1761.95 761.413 1762.04 760.677 1762.04 759.942C1762.04 751.276 1754.51 748.579 1751.89 747.679C1751.56 747.516 1751.15 747.516 1750.82 747.598C1750.74 747.598 1750.74 747.598 1750.66 747.598C1749.02 747.516 1747.8 748.252 1747.06 748.824C1746.73 748.987 1746.4 749.151 1746.24 749.233ZM1750.66 752.257C1755.98 754.219 1757.86 756.917 1757.21 761.577C1756.96 763.375 1752.3 767.626 1750.91 767.544C1750.09 766.972 1749.11 766.563 1748.04 766.154C1745.67 765.173 1744.77 764.601 1744.6 763.13L1744.36 761.413C1744.19 760.023 1744.03 758.879 1744.03 757.898C1744.03 755.527 1744.85 754.383 1747.55 753.647C1748.45 753.402 1749.11 752.993 1749.6 752.584C1749.84 752.421 1750.33 752.094 1750.41 752.094C1750.5 752.257 1750.58 752.257 1750.66 752.257ZM1551.71 764.438C1552.2 763.375 1552.45 762.149 1552.45 760.841C1552.45 756.999 1550.4 752.584 1547.29 750.541C1546.23 749.805 1545.08 749.233 1543.94 748.579L1542.46 747.761C1542.05 747.516 1541.56 747.434 1541.07 747.516C1540.83 747.516 1540.58 747.516 1540.34 747.516C1537.96 748.006 1536.24 749.314 1534.61 750.377L1533.71 751.031C1530.02 753.565 1527.98 760.432 1529.78 764.356C1531.74 768.607 1536.33 771.632 1540.74 771.632C1544.59 771.795 1549.58 769.261 1551.71 764.438ZM1534.03 762.476C1533.87 762.067 1533.79 761.577 1533.79 761.004C1533.79 758.879 1534.93 755.936 1536.33 754.955L1537.31 754.301C1538.45 753.483 1539.6 752.666 1540.83 752.339L1541.64 752.829C1542.71 753.402 1543.69 753.892 1544.67 754.546C1546.88 756.018 1548.36 760.35 1547.37 762.558C1546.15 765.419 1542.95 767.054 1540.66 767.054C1538.53 767.054 1535.43 765.419 1534.03 762.476ZM1750.25 692.663C1746.73 693.153 1744.03 695.034 1741.66 696.669C1740.59 697.404 1739.61 698.14 1738.47 698.712C1732.57 701.9 1726.68 705.334 1721.03 708.686C1713.51 713.1 1705.65 717.678 1697.71 721.684C1692.96 724.054 1690.75 728.06 1691.08 733.782C1691.57 744.001 1691.65 754.056 1691.65 763.457C1691.65 770.814 1691.49 778.171 1691.08 785.284C1690.67 791.333 1692.96 795.093 1698.53 798.118C1712.11 805.475 1725.62 813.568 1738.63 821.416L1744.03 824.604C1748.45 827.22 1752.54 827.22 1756.96 824.604L1762.36 821.334C1775.38 813.568 1788.88 805.475 1802.46 798.118C1807.7 795.257 1809.99 791.742 1809.99 786.101C1809.99 785.856 1809.99 785.611 1809.99 785.284C1809.67 775.801 1809.5 765.582 1809.42 752.993C1809.42 747.352 1809.58 741.221 1809.91 733.292C1810.16 728.223 1808.19 724.626 1804.02 722.174C1793.13 715.961 1782.25 709.748 1771.37 703.454L1754.83 693.971C1754.18 693.562 1753.44 693.317 1752.71 693.072L1751.97 692.826C1751.56 692.663 1751.23 692.663 1750.82 692.663C1750.66 692.663 1750.41 692.663 1750.25 692.663ZM1751.15 697.568C1751.64 697.731 1752.13 697.895 1752.54 698.14L1769.07 707.623C1779.96 713.917 1790.84 720.13 1801.81 726.343C1804.51 727.896 1805.49 729.777 1805.33 733.128C1804.92 741.221 1804.84 747.352 1804.84 753.075C1804.92 765.746 1805.08 776.046 1805.41 785.529C1805.57 789.861 1804.35 791.823 1800.42 794.031C1786.75 801.47 1773.25 809.563 1760.15 817.411L1754.75 820.681C1751.81 822.479 1749.6 822.479 1746.65 820.681L1741.25 817.492C1728.15 809.645 1714.65 801.551 1700.98 794.112C1697.3 792.069 1695.99 790.188 1695.99 786.591C1695.99 786.346 1695.99 786.019 1695.99 785.692C1696.4 778.417 1696.48 770.978 1696.56 763.62C1696.56 754.137 1696.48 744.001 1695.99 733.7C1695.83 729.777 1696.97 727.488 1700 726.016C1708.1 722.01 1715.96 717.351 1723.57 712.855C1729.22 709.503 1735.03 706.151 1740.84 702.963C1742.07 702.309 1743.29 701.492 1744.44 700.674C1746.57 699.203 1748.53 697.895 1750.82 697.486L1751.15 697.568ZM1562.02 815.857C1567.01 812.996 1572.01 810.135 1576.92 807.192C1579.45 805.721 1581.99 804.249 1584.61 802.778C1587.88 800.897 1591.24 799.017 1594.43 797.055C1598.85 794.358 1599.5 791.415 1599.67 787.491C1599.59 769.097 1599.59 750.459 1599.67 732.147L1599.67 731.984C1599.67 728.06 1598.77 725.117 1594.35 722.583C1588.54 719.231 1582.73 715.879 1576.92 712.528C1570.37 708.767 1563.74 704.925 1557.19 701.165C1555.64 700.265 1554.17 699.366 1552.61 698.467C1549.34 696.505 1545.9 694.543 1542.38 692.745C1541.97 692.499 1541.48 692.499 1541.07 692.499C1540.66 692.418 1540.25 692.499 1539.84 692.663C1531.17 696.587 1522.9 701.573 1514.97 706.315C1511.36 708.44 1507.76 710.647 1504.16 712.691L1499.5 715.389C1495.41 717.678 1491.31 720.048 1487.3 722.419C1482.97 725.035 1481.98 727.978 1481.98 731.82L1481.98 731.984C1482.07 750.377 1482.07 769.016 1481.98 787.327C1481.82 791.333 1482.88 794.439 1487.39 796.892C1496.47 801.797 1505.47 807.192 1514.23 812.342C1517.5 814.304 1520.78 816.184 1524.05 818.146L1535.59 824.931C1539.19 827.057 1542.87 827.057 1546.39 824.931C1551.38 821.988 1556.7 818.882 1562.02 815.857ZM1537.72 821.089L1526.18 814.304C1522.9 812.424 1519.63 810.462 1516.36 808.5C1507.6 803.268 1498.52 797.954 1489.35 792.968C1486.81 791.578 1486.4 790.515 1486.4 787.572C1486.49 769.179 1486.49 750.541 1486.4 732.147C1486.32 729.368 1486.81 728.142 1489.35 726.67C1493.36 724.299 1497.45 722.01 1501.54 719.722L1506.29 717.024C1509.97 714.898 1513.57 712.773 1517.26 710.566C1524.87 705.988 1532.72 701.328 1540.91 697.486C1544.02 699.039 1547.13 700.838 1550.07 702.636C1551.63 703.535 1553.18 704.435 1554.74 705.334C1561.37 709.094 1567.91 712.855 1574.46 716.615C1580.27 719.967 1586.08 723.318 1591.98 726.67C1594.51 728.142 1594.84 729.368 1594.92 732.065C1594.84 741.221 1594.84 750.541 1594.84 759.778C1594.84 769.016 1594.84 778.335 1594.92 787.491C1595 790.188 1594.51 791.415 1591.89 792.968C1588.7 794.93 1585.51 796.728 1582.24 798.608C1579.62 800.08 1577 801.551 1574.46 803.105C1569.55 806.048 1564.56 808.909 1559.65 811.688C1554.33 814.713 1548.93 817.819 1543.69 821.007C1541.73 822.234 1539.84 822.234 1537.72 821.089ZM1959.92 514.615C1959.27 513.961 1958.45 513.226 1957.38 512.653C1919.57 490.99 1888.48 473.006 1859.59 456.166C1858.85 455.757 1858.2 455.512 1857.54 455.266C1857.79 438.835 1857.95 422.322 1857.95 405.727L1853.2 408.506C1853.12 424.12 1853.04 439.734 1852.79 455.266C1851.98 455.593 1851.24 456.002 1850.58 456.493C1847.31 459.108 1843.63 461.07 1839.7 463.196C1837.98 464.177 1836.18 465.076 1834.46 466.057C1813.43 478.401 1791.91 490.663 1771.04 502.598L1750.33 514.452L1745.42 511.591C1740.68 508.811 1735.93 506.032 1731.18 503.252C1724.06 499.165 1717.02 495.078 1709.9 491.072L1705.16 493.77C1713.01 498.266 1720.95 502.762 1728.81 507.34C1733.56 510.119 1738.3 512.899 1743.05 515.596L1748.04 518.539L1748.04 637.401L1734.05 645.412C1726.68 649.663 1719.32 653.833 1711.95 658.083C1692.06 669.446 1671.44 681.218 1651.47 693.235C1646.23 696.423 1643.37 695.442 1638.54 692.581C1611.94 676.967 1583.71 660.699 1546.96 639.772C1543.85 638.055 1542.87 636.338 1542.87 632.905L1542.87 632.823C1542.95 617.618 1542.95 602.495 1542.95 587.29L1538.21 589.987C1538.21 604.211 1538.21 618.517 1538.13 632.741L1538.13 632.823C1538.13 634.458 1538.37 635.766 1538.78 637.074L1536.98 638.055C1535.18 639.118 1533.3 640.099 1531.5 641.162L1514.23 651.135C1488.61 665.931 1462.92 680.728 1437.3 695.606C1435.58 696.587 1434.6 696.342 1433.7 695.606C1430.1 692.745 1426.01 690.537 1422.16 688.494C1420.44 687.594 1418.72 686.695 1417.09 685.714C1409.64 681.382 1402.19 677.049 1394.66 672.716L1389.92 675.414C1398.18 680.155 1406.45 684.979 1414.63 689.72C1416.35 690.701 1418.07 691.682 1419.87 692.581C1423.72 694.625 1427.4 696.669 1430.75 699.284C1431.33 699.775 1432.06 700.184 1432.96 700.511C1433.62 739.832 1433.62 779.643 1432.96 818.882C1432.15 819.209 1431.41 819.618 1430.75 820.108C1427.48 822.724 1423.8 824.686 1419.87 826.812C1418.15 827.793 1416.35 828.692 1414.63 829.673C1393.68 841.935 1372.24 854.197 1351.53 866.051L1330.5 878.068L1325.1 874.961C1320.52 872.264 1315.93 869.566 1311.35 866.95C1302.92 862.045 1294.41 857.222 1285.9 852.399C1267.57 841.935 1248.58 831.144 1230.25 820.026C1229.68 819.699 1229.02 819.372 1228.29 819.045C1228.04 802.369 1227.96 785.61 1227.96 768.852L1223.21 771.55C1223.29 787.409 1223.29 803.268 1223.54 818.964C1222.88 819.127 1222.23 819.454 1221.49 819.863C1194.08 835.886 1166.58 851.745 1139 867.686L1143.75 870.383C1170.51 854.933 1197.27 839.482 1223.95 823.95C1225.59 823.051 1226.49 823.215 1227.88 824.032C1246.29 835.232 1265.28 846.022 1283.61 856.486C1292.12 861.309 1300.55 866.132 1309.06 871.037C1313.64 873.735 1318.23 876.351 1322.81 879.049L1328.29 882.237L1328.29 976.819L1333.04 979.517L1333.04 882.237L1353.91 870.302C1374.61 858.448 1396.05 846.186 1417.09 833.924C1418.72 832.943 1420.44 832.043 1422.16 831.144C1426.09 829.019 1430.1 826.893 1433.7 824.032C1434.6 823.296 1435.58 823.051 1437.3 824.032C1466.52 841.117 1498.6 859.593 1535.1 880.52C1537.39 881.828 1538.13 883.3 1538.13 886.324C1538.04 923.111 1538.13 959.816 1537.96 996.602C1537.88 998.237 1538.21 999.627 1538.62 1000.94L1537.06 1001.83C1535.18 1002.9 1533.3 1003.96 1531.41 1005.02L1515.05 1014.42C1494.83 1026.11 1474.54 1037.8 1454.32 1049.58L1459.07 1052.27C1478.47 1040.99 1497.94 1029.71 1517.42 1018.51L1533.79 1009.11C1535.67 1008.05 1537.47 1006.98 1539.35 1005.92L1541.07 1004.94C1541.97 1005.92 1543.04 1006.82 1544.43 1007.56C1580.44 1028.08 1609.49 1044.92 1635.92 1060.37C1638.3 1061.76 1640.67 1062.9 1643.21 1063.39C1642.8 1094.86 1642.8 1126.66 1643.04 1158.3L1647.79 1161C1647.54 1128.46 1647.46 1095.76 1647.95 1063.39L1647.95 1063.31C1649.75 1062.98 1651.64 1062.25 1653.76 1060.94C1673.73 1048.92 1694.27 1037.15 1714.16 1025.79C1721.53 1021.62 1728.89 1017.37 1736.26 1013.12L1750.17 1005.1L1771.12 1017.04C1791.82 1028.89 1813.27 1041.16 1834.3 1053.42C1836.02 1054.4 1837.74 1055.38 1839.54 1056.28C1843.38 1058.32 1847.07 1060.28 1850.34 1062.98C1850.91 1063.47 1851.65 1063.88 1852.55 1064.21C1853.2 1103.53 1853.2 1143.34 1852.55 1182.58C1851.73 1182.91 1850.99 1183.32 1850.34 1183.81C1847.07 1186.42 1843.38 1188.38 1839.54 1190.43C1837.74 1191.41 1836.02 1192.31 1834.3 1193.29C1813.27 1205.63 1791.74 1217.89 1770.87 1229.83L1769.16 1230.81L1773.9 1233.51C1794.53 1221.74 1815.8 1209.56 1836.67 1197.38C1838.31 1196.39 1840.03 1195.5 1841.75 1194.6C1845.59 1192.47 1849.68 1190.35 1853.29 1187.48C1854.19 1186.75 1855.17 1186.5 1856.89 1187.48C1885.86 1204.32 1916.87 1222.31 1954.68 1243.97C1956.97 1245.28 1957.71 1246.75 1957.71 1249.78C1957.63 1279.7 1957.63 1309.62 1957.63 1339.45L1962.38 1342.15C1962.46 1311.33 1962.38 1280.51 1962.46 1249.69C1962.46 1248.47 1962.38 1247.16 1962.05 1245.85L1981.61 1234.57C1995.93 1226.89 2009.92 1218.71 2023.92 1210.62L2023.92 1205.14C2009.11 1213.73 1994.37 1222.23 1979.56 1230.81L1960 1242.09C1959.27 1241.44 1958.45 1240.78 1957.38 1240.13C1919.57 1218.47 1888.48 1200.48 1859.59 1183.64C1858.85 1183.23 1858.2 1182.99 1857.54 1182.74C1857.87 1163.12 1858.03 1143.34 1858.03 1123.56C1858.03 1103.77 1857.87 1083.99 1857.54 1064.37C1858.2 1064.13 1858.85 1063.88 1859.59 1063.47C1885.37 1048.43 1911.14 1033.55 1937.01 1018.67L1953.7 1009.03C1955.58 1007.88 1957.55 1006.82 1959.51 1005.76L1961.07 1004.94C1961.97 1005.92 1963.03 1006.82 1964.42 1007.56C1986.52 1020.23 2006 1031.43 2023.92 1041.81L2023.92 1036.33C2006.65 1026.36 1987.91 1015.57 1966.71 1003.47C1963.6 1001.75 1962.62 1000.04 1962.62 996.603L1962.62 996.521C1962.78 959.734 1962.7 923.029 1962.78 886.243C1962.78 885.016 1962.7 883.708 1962.38 882.4L1982.67 870.71C1996.42 862.781 2010.17 854.851 2023.92 846.922L2023.92 841.445C2009.35 849.865 1994.87 858.285 1980.3 866.623L1960 878.313C1959.27 877.659 1958.45 877.005 1957.38 876.351C1919.9 854.851 1888.88 836.948 1859.59 819.863C1858.85 819.454 1858.2 819.209 1857.54 818.964C1857.87 799.344 1858.03 779.561 1858.03 759.778C1858.03 739.995 1857.87 720.212 1857.54 700.592C1858.2 700.347 1858.85 700.102 1859.59 699.693C1885.04 684.815 1910.57 670.1 1936.11 655.386L1953.7 645.249C1955.58 644.186 1957.47 643.124 1959.35 642.061L1961.07 641.08C1961.97 642.061 1963.03 642.96 1964.42 643.696C1986.93 656.53 2006.24 667.648 2024 677.867L2024 672.553C2006.9 662.661 1988.32 652.034 1966.8 639.69C1963.69 637.973 1962.7 636.257 1962.7 632.823L1962.7 632.742C1962.87 595.955 1962.78 559.25 1962.87 522.463C1962.87 521.237 1962.78 519.929 1962.46 518.621L1982.59 507.013C1996.42 499.083 2010.17 491.072 2024 483.061L2024 477.584C2009.43 486.004 1994.78 494.505 1980.22 502.925L1959.92 514.615ZM1537.8 876.351C1501.22 855.423 1469.22 836.948 1440 819.863C1439.26 819.454 1438.61 819.209 1437.96 818.964C1438.28 799.344 1438.45 779.561 1438.45 759.778C1438.45 739.995 1438.28 720.212 1437.96 700.592C1438.61 700.347 1439.26 700.102 1440 699.693C1465.62 684.815 1491.23 670.019 1516.85 655.222L1534.12 645.249C1535.92 644.186 1537.72 643.205 1539.52 642.143L1541.4 641.08C1542.3 642.061 1543.36 642.96 1544.75 643.696C1581.42 664.623 1609.65 680.891 1636.25 696.505C1638.62 697.895 1641 699.039 1643.53 699.53C1642.96 739.096 1642.96 779.234 1643.53 818.882C1642.88 819.045 1642.22 819.373 1641.49 819.781C1614.15 835.64 1586.82 851.418 1559.4 867.195L1540.34 878.231C1539.6 877.659 1538.78 877.005 1537.8 876.351ZM1734.21 1009.19C1726.84 1013.44 1719.48 1017.61 1712.2 1021.78C1692.31 1033.14 1671.69 1044.92 1651.64 1057.01C1646.4 1060.2 1643.53 1059.22 1638.71 1056.36C1612.27 1040.91 1583.14 1024.07 1547.13 1003.55C1544.02 1001.83 1543.04 1000.12 1543.04 996.684L1543.04 996.602C1543.2 959.816 1543.12 923.111 1543.2 886.324C1543.28 885.098 1543.2 883.708 1542.79 882.4L1561.86 871.446C1589.27 855.669 1616.61 839.891 1643.94 824.032C1645.58 823.051 1646.48 823.296 1647.87 824.114C1666.28 835.232 1685.19 846.104 1703.6 856.568C1712.11 861.391 1720.63 866.296 1729.05 871.119C1733.88 873.899 1738.79 876.76 1743.54 879.621L1748.29 882.4L1748.29 1001.18L1734.21 1009.19ZM1857.21 824.032C1886.51 841.118 1917.61 859.02 1955.01 880.52C1957.3 881.828 1958.04 883.3 1958.04 886.324C1957.96 923.111 1958.04 959.816 1957.87 996.603L1957.87 996.684C1957.87 998.319 1958.12 999.709 1958.53 1000.94L1957.14 1001.75C1955.17 1002.82 1953.21 1003.96 1951.33 1005.02L1934.63 1014.67C1908.77 1029.55 1882.99 1044.43 1857.21 1059.47C1855.49 1060.45 1854.51 1060.2 1853.61 1059.47C1850.01 1056.61 1845.92 1054.4 1842.07 1052.35C1840.35 1051.46 1838.64 1050.56 1837 1049.58C1815.97 1037.31 1794.53 1025.05 1773.82 1013.2L1752.95 1001.26L1752.95 882.319L1773.9 870.302C1794.61 858.448 1816.05 846.186 1837 834.005C1838.64 833.024 1840.35 832.125 1842.07 831.226C1845.92 829.101 1850.01 826.975 1853.61 824.114C1854.35 823.378 1855.33 822.888 1857.21 824.032ZM1852.88 700.674C1853.53 739.995 1853.53 779.806 1852.88 819.046C1852.06 819.372 1851.32 819.781 1850.67 820.272C1847.39 822.888 1843.71 824.85 1839.86 826.975C1838.06 827.956 1836.34 828.855 1834.63 829.836C1813.68 842.098 1792.32 854.279 1771.61 866.132L1750.5 878.231L1745.91 875.534C1741.08 872.754 1736.26 869.893 1731.35 867.032C1722.92 862.127 1714.41 857.304 1705.89 852.399C1687.56 841.935 1668.66 831.144 1650.33 820.027C1649.75 819.699 1649.1 819.372 1648.36 819.045C1647.79 779.479 1647.79 739.259 1648.36 699.693L1648.36 699.611C1650.16 699.284 1652.04 698.549 1654.17 697.241C1674.14 685.224 1694.68 673.452 1714.57 662.089C1721.93 657.92 1729.3 653.669 1736.67 649.418L1750.58 641.407L1771.53 653.342C1792.23 665.196 1813.68 677.458 1834.71 689.72C1836.43 690.701 1838.23 691.682 1839.95 692.581C1843.79 694.625 1847.47 696.587 1850.75 699.203C1851.24 699.939 1851.98 700.347 1852.88 700.674ZM1958.04 522.545C1957.96 559.332 1958.04 596.118 1957.87 632.823L1957.87 632.905C1957.87 634.54 1958.12 635.848 1958.53 637.156L1956.97 638.055C1955.09 639.118 1953.21 640.181 1951.33 641.243L1933.73 651.38C1908.2 666.095 1882.67 680.809 1857.21 695.688C1855.49 696.669 1854.51 696.423 1853.61 695.688C1850.01 692.826 1846 690.619 1842.07 688.575C1840.35 687.676 1838.64 686.777 1837 685.796C1815.97 673.534 1794.53 661.272 1773.82 649.418L1752.95 637.483L1752.95 518.539L1773.57 506.768C1794.36 494.832 1815.97 482.57 1837 470.226C1838.64 469.245 1840.35 468.346 1842.07 467.447C1845.92 465.321 1850.01 463.196 1853.61 460.335C1854.43 459.681 1855.41 459.272 1857.21 460.335C1886.18 477.175 1917.2 495.159 1955.01 516.823C1957.3 518.049 1958.04 519.52 1958.04 522.545ZM1844.69 946.573C1846.08 951.232 1850.67 952.622 1854.02 953.685L1854.51 953.848C1858.36 955.074 1865.81 949.025 1866.79 946.246C1867.12 945.183 1867.28 944.12 1867.28 942.976C1867.28 938.888 1865.23 934.474 1862.04 932.512C1861.71 932.267 1861.31 932.021 1860.98 931.858C1859.59 930.959 1858.03 929.896 1856.07 929.569C1855.9 929.569 1855.74 929.569 1855.49 929.569C1853.53 929.079 1852.14 930.305 1851.4 930.959C1844.94 934.392 1842.56 939.706 1844.69 946.573ZM1855.41 934.147C1856.4 934.31 1857.38 934.964 1858.44 935.7C1858.85 935.945 1859.26 936.272 1859.67 936.518C1861.8 937.826 1863.27 942.076 1862.37 944.611C1861.71 946 1857.05 949.27 1855.9 949.352L1855.41 949.189C1852.06 948.208 1849.85 947.39 1849.19 945.265C1848.87 944.12 1848.7 943.057 1848.7 942.076C1848.7 939.134 1850.34 936.926 1853.78 935.128C1854.19 934.883 1854.51 934.637 1854.92 934.31C1855.09 934.147 1855.25 934.147 1855.41 934.147ZM1841.01 517.967C1836.43 520.42 1831.84 523.199 1827.51 525.815C1820.71 529.902 1813.68 534.072 1806.47 537.423C1795.75 542.328 1795.34 550.666 1795.83 558.759C1796.57 571.185 1796.57 584.101 1795.83 597.181C1795.67 600.451 1795.92 603.639 1796.16 606.746L1796.33 609.443C1796.49 611.977 1798.29 613.04 1799.44 613.694L1799.93 614.021C1806.23 618.027 1812.86 621.787 1819.16 625.384C1824.72 628.572 1830.53 631.842 1836.1 635.276C1837.82 636.338 1839.54 637.238 1841.34 638.219C1843.71 639.445 1845.92 640.671 1847.97 642.143C1852.55 645.412 1856.89 645.576 1861.63 642.715C1871.45 636.747 1881.44 631.025 1891.34 625.302L1895.51 622.85C1899.69 620.479 1904.6 617.618 1909.51 615.084C1914.01 612.795 1914.5 609.035 1914.5 606.092C1914.34 589.17 1914.25 570.041 1914.58 551.239C1914.58 551.075 1914.58 550.993 1914.58 550.83C1914.58 545.516 1912.62 542.165 1908.04 539.63C1896.91 533.499 1885.94 527.205 1874.97 520.828L1874.07 520.338C1872.52 519.439 1870.96 518.539 1869.41 517.64C1865.48 515.269 1861.39 512.899 1857.13 510.855C1856.72 510.692 1856.31 510.61 1855.9 510.61C1855.74 510.61 1855.58 510.61 1855.41 510.61C1851.08 511.019 1847.72 513.307 1844.77 515.351C1843.63 516.414 1842.4 517.313 1841.01 517.967ZM1867.12 521.809C1868.67 522.708 1870.23 523.69 1871.78 524.589L1872.68 525.079C1883.73 531.374 1894.7 537.75 1905.83 543.881C1909.02 545.598 1910.08 547.396 1909.92 551.239C1909.75 559.904 1909.67 568.651 1909.67 577.234C1909.67 587.29 1909.75 597.099 1909.84 606.173C1909.67 608.871 1909.26 609.934 1907.38 610.915C1902.31 613.531 1897.31 616.392 1893.14 618.763L1888.97 621.215C1878.98 627.019 1869 632.742 1859.18 638.709C1856.07 640.589 1853.78 640.508 1850.67 638.3C1848.37 636.665 1845.92 635.357 1843.55 634.049C1841.91 633.15 1840.19 632.251 1838.64 631.27C1832.99 627.755 1827.18 624.485 1821.53 621.215C1815.23 617.618 1808.68 613.939 1802.46 609.934L1801.89 609.525C1801.56 609.362 1801.15 609.035 1801.07 609.035L1800.91 606.255C1800.66 603.149 1800.42 600.206 1800.58 597.263C1801.32 584.02 1801.32 570.94 1800.58 558.351C1800.17 550.83 1800.42 545.189 1808.44 541.511C1815.89 538.077 1823.01 533.826 1829.96 529.657C1834.3 527.041 1838.8 524.343 1843.3 521.891C1844.77 521.074 1846.17 520.174 1847.56 519.193C1850.26 517.395 1852.71 515.596 1855.74 515.269C1859.67 517.395 1863.43 519.684 1867.12 521.809ZM1278.94 798.2C1292.53 805.557 1306.03 813.65 1319.13 821.498L1324.45 824.686C1328.86 827.302 1332.96 827.302 1337.38 824.686L1342.78 821.498C1355.87 813.732 1369.29 805.639 1382.88 798.2C1388.12 795.339 1390.41 791.823 1390.41 786.183C1390.41 785.938 1390.41 785.692 1390.41 785.365C1390.08 775.964 1389.92 765.991 1389.83 753.075C1389.83 747.352 1390 741.303 1390.33 733.373C1390.57 728.142 1388.69 724.708 1384.43 722.256C1373.63 716.125 1362.91 709.993 1352.19 703.781L1346.71 700.592L1341.96 703.29L1349.82 707.786C1360.54 713.999 1371.34 720.13 1382.06 726.261C1384.76 727.815 1385.74 729.695 1385.58 733.046C1385.17 741.058 1385.01 747.189 1385.09 752.993C1385.17 765.991 1385.33 776.046 1385.66 785.447C1385.82 789.78 1384.6 791.742 1380.67 793.949C1367 801.388 1353.5 809.481 1340.4 817.329L1335 820.517C1332.06 822.315 1329.85 822.315 1326.9 820.517L1321.58 817.329C1308.49 809.481 1294.9 801.388 1281.24 793.949C1277.55 791.905 1276.24 790.025 1276.24 786.428C1276.24 786.183 1276.24 785.856 1276.24 785.529C1276.65 778.253 1276.73 770.814 1276.82 763.457C1276.82 756.345 1276.65 748.742 1276.49 741.14L1271.82 743.837C1271.99 750.541 1272.07 757.244 1272.07 763.538C1272.07 770.814 1271.91 778.171 1271.58 785.365C1271.09 791.415 1273.3 795.093 1278.94 798.2ZM1634.12 579.033C1634.2 581.567 1635.6 584.347 1638.13 586.636C1640.59 589.006 1643.53 590.314 1645.99 590.232C1651.31 589.987 1655.89 584.51 1656.71 579.442C1656.87 578.543 1656.96 577.725 1656.96 576.908C1656.96 570.122 1651.47 567.67 1647.38 565.871C1646.97 565.708 1646.56 565.626 1646.15 565.708C1645.83 565.708 1645.42 565.708 1645.09 565.871C1636.09 569.223 1633.88 570.858 1634.12 579.033ZM1652.04 578.624C1651.55 581.731 1648.69 585.409 1645.74 585.491C1644.6 585.573 1642.8 584.592 1641.32 583.202C1639.85 581.812 1638.87 580.096 1638.79 578.951C1638.79 578.461 1638.79 577.97 1638.79 577.561C1638.79 573.638 1639.44 572.984 1646.07 570.531C1650.98 572.738 1652.86 574.21 1652.04 578.624ZM1320.03 762.149L1320.27 763.784C1320.76 768.116 1324.28 769.588 1326.57 770.569C1327.31 770.896 1328.05 771.223 1328.7 771.55C1329.68 772.204 1331.32 772.694 1333.94 771.55C1337.38 769.997 1341.8 765.582 1342.2 762.312C1342.29 761.495 1342.37 760.759 1342.37 760.023C1342.37 751.358 1334.84 748.66 1332.22 747.761C1331.89 747.598 1331.48 747.598 1331.16 747.679C1331.07 747.679 1331.07 747.679 1330.99 747.679C1329.36 747.598 1328.13 748.333 1327.39 748.906C1327.15 749.069 1326.82 749.314 1326.57 749.314C1318.55 751.44 1319.45 757.898 1320.03 762.149ZM1330.99 752.257C1336.31 754.219 1338.19 756.917 1337.54 761.577C1337.29 763.375 1332.63 767.626 1331.24 767.544C1330.42 766.972 1329.44 766.563 1328.37 766.154C1326 765.173 1325.1 764.601 1324.85 763.13L1324.61 761.413C1324.45 760.023 1324.28 758.879 1324.28 757.898C1324.28 755.527 1325.1 754.383 1327.8 753.647C1328.7 753.402 1329.36 752.993 1329.85 752.584C1330.09 752.421 1330.58 752.094 1330.67 752.094C1330.91 752.257 1330.99 752.257 1330.99 752.257ZM1698.77 979.926C1704.5 977.065 1705.32 971.996 1705.32 968.072C1705.32 967.173 1705.24 966.356 1705.24 965.62C1704.75 957.527 1704.83 949.189 1704.83 941.259C1704.83 937.417 1704.83 933.575 1704.83 929.732C1704.83 927.689 1704.91 925.645 1705.08 923.601C1705.32 919.677 1705.57 915.672 1704.83 911.339C1704.5 909.459 1704.09 907.497 1701.23 905.699C1695.17 901.938 1688.95 898.423 1682.9 894.99C1677.01 891.638 1670.87 888.123 1664.98 884.526C1663.26 883.463 1661.54 882.564 1659.74 881.583C1657.36 880.357 1655.15 879.13 1653.11 877.659C1648.53 874.389 1644.19 874.225 1639.44 877.087C1629.62 883.054 1619.64 888.777 1609.73 894.499L1605.56 896.951C1601.14 899.486 1596.39 902.183 1591.48 904.718C1586.98 907.007 1586.49 910.685 1586.49 913.71C1586.66 930.632 1586.74 949.761 1586.41 968.563C1586.41 973.958 1588.29 977.555 1592.96 980.171C1600.57 984.34 1608.1 988.673 1615.71 993.006L1627 999.464C1628.64 1000.36 1630.28 1001.43 1631.91 1002.41C1635.92 1004.86 1640.01 1007.39 1644.68 1009.03C1645.01 1009.19 1645.42 1009.19 1645.74 1009.19C1645.91 1009.19 1646.15 1009.19 1646.32 1009.19C1649.84 1008.7 1652.54 1006.82 1654.91 1005.19C1655.97 1004.45 1656.95 1003.71 1658.1 1003.14C1663.91 1000.04 1669.64 996.684 1675.2 993.414C1682.73 988.591 1690.67 983.932 1698.77 979.926ZM1652.13 1001.02C1650 1002.49 1648.03 1003.8 1645.74 1004.21C1641.73 1002.73 1638.13 1000.44 1634.29 998.156C1632.65 997.093 1630.93 996.112 1629.21 995.131L1617.92 988.755C1610.31 984.422 1602.78 980.089 1595.09 975.838C1591.89 974.122 1590.83 972.242 1590.99 968.481C1591.32 949.597 1591.16 930.468 1591.08 913.546C1590.99 911.012 1591.65 909.786 1593.53 908.805C1598.52 906.271 1603.35 903.491 1607.77 900.957L1611.94 898.505C1621.93 892.701 1631.91 886.978 1641.73 881.011C1644.92 879.13 1647.13 879.212 1650.24 881.419C1652.54 883.054 1654.99 884.362 1657.36 885.67C1659 886.569 1660.72 887.469 1662.27 888.45C1668.25 892.128 1674.39 895.644 1680.36 899.077C1686.33 902.51 1692.55 906.026 1698.53 909.704C1699.67 910.44 1699.67 910.603 1700 912.484C1700.66 915.999 1700.41 919.514 1700.17 923.274C1700 925.482 1699.92 927.607 1699.92 929.814C1700 933.656 1699.92 937.499 1699.92 941.341C1699.92 949.434 1699.92 957.772 1700.33 966.029C1700.66 971.097 1700.08 974.04 1696.48 975.838C1688.22 979.926 1680.2 984.586 1672.5 989.163C1667.02 992.433 1661.29 995.785 1655.56 998.81C1654.5 999.382 1653.35 1000.2 1652.13 1001.02ZM1592.96 616.147C1600.57 620.316 1608.1 624.648 1615.71 628.981L1627 635.439C1628.64 636.338 1630.28 637.401 1631.91 638.382C1635.92 640.835 1640.01 643.369 1644.6 645.004C1644.92 645.167 1645.33 645.167 1645.66 645.167C1645.83 645.167 1646.07 645.167 1646.23 645.167C1649.75 644.677 1652.45 642.797 1654.83 641.162C1655.89 640.426 1656.87 639.69 1658.02 639.118C1663.83 636.011 1669.56 632.66 1675.12 629.39C1682.82 624.894 1690.75 620.234 1698.77 616.228C1704.5 613.449 1705.32 608.299 1705.32 604.375C1705.32 603.476 1705.24 602.658 1705.24 601.922C1704.75 593.502 1704.75 584.919 1704.83 576.662C1704.83 572.902 1704.83 569.223 1704.83 565.463C1704.75 563.501 1704.91 561.539 1705.08 559.495C1705.32 555.735 1705.57 551.811 1704.83 547.478C1704.5 545.598 1704.09 543.636 1701.23 541.838C1695.17 538.077 1688.95 534.562 1682.9 531.129C1677.01 527.777 1670.87 524.262 1664.98 520.665C1663.99 520.011 1662.93 519.52 1661.87 518.948L1657.12 521.728C1657.28 521.809 1657.36 521.891 1657.53 521.973C1659.16 522.872 1660.88 523.771 1662.44 524.752C1668.41 528.431 1674.55 531.946 1680.52 535.379C1686.5 538.813 1692.72 542.328 1698.69 546.007C1699.84 546.742 1699.84 546.906 1700.17 548.786C1700.82 552.22 1700.57 555.653 1700.33 559.332C1700.17 561.457 1700.08 563.501 1700.08 565.626C1700.08 569.387 1700.08 573.065 1700.08 576.826C1700.08 585.164 1700.08 593.829 1700.49 602.331C1700.82 607.4 1700.25 610.343 1696.65 612.141C1688.38 616.228 1680.36 620.888 1672.67 625.466C1667.18 628.736 1661.46 632.087 1655.73 635.112C1654.5 635.766 1653.27 636.584 1652.13 637.401C1650 638.873 1648.03 640.181 1645.74 640.589C1641.73 639.118 1638.13 636.829 1634.29 634.54C1632.65 633.477 1630.93 632.496 1629.21 631.515L1617.92 625.139C1610.31 620.806 1602.78 616.474 1595.09 612.223C1591.89 610.506 1590.83 608.626 1590.99 604.865C1591.32 589.579 1591.24 574.128 1591.16 559.822L1586.41 562.52C1586.49 576.09 1586.49 590.559 1586.25 604.784C1586.33 610.016 1588.21 613.531 1592.96 616.147ZM1656.71 943.221C1656.87 942.322 1656.95 941.504 1656.95 940.687C1656.95 933.902 1651.47 931.449 1647.38 929.651C1646.97 929.487 1646.56 929.406 1646.15 929.487C1645.82 929.487 1645.42 929.487 1645.09 929.651C1636.09 933.084 1634.04 934.719 1634.12 942.894C1634.2 945.428 1635.6 948.208 1638.13 950.578C1640.67 952.949 1643.53 954.257 1645.99 954.175C1651.31 953.848 1655.89 948.289 1656.71 943.221ZM1641.41 947.063C1639.93 945.673 1638.87 943.957 1638.87 942.812C1638.87 942.322 1638.87 941.831 1638.87 941.422C1638.87 937.499 1639.52 936.845 1646.15 934.392C1650.98 936.599 1652.86 938.071 1652.13 942.567C1651.64 945.673 1648.77 949.352 1645.82 949.434C1644.68 949.352 1642.88 948.453 1641.41 947.063ZM1974.41 341.636C1981.03 345.397 1987.66 349.239 1994.29 352.999C2000.02 356.351 2005.83 359.621 2011.64 362.973C2014.18 364.444 2014.75 365.507 2014.59 368.368C2014.51 377.524 2014.51 386.843 2014.51 396.081C2014.51 405.318 2014.51 414.638 2014.59 423.793C2014.51 426.491 2014.18 427.717 2011.64 429.27C2008.45 431.232 2005.18 433.112 2001.99 434.911C1999.37 436.382 1996.75 437.854 1994.21 439.325C1989.3 442.268 1984.31 445.13 1979.4 447.909C1974.08 450.934 1968.68 454.04 1963.44 457.228C1961.48 458.455 1959.51 458.455 1957.47 457.228L1945.93 450.443C1942.65 448.481 1939.3 446.601 1936.02 444.639C1927.27 439.489 1918.26 434.093 1909.1 429.189C1906.56 427.799 1906.15 426.736 1906.15 423.793C1906.23 408.588 1906.23 393.22 1906.15 377.933L1901.41 380.63C1901.49 395.018 1901.49 409.406 1901.41 423.711C1901.49 427.881 1902.31 430.824 1906.81 433.276C1915.81 438.181 1924.81 443.495 1933.57 448.645C1936.84 450.607 1940.2 452.569 1943.47 454.449L1955.01 461.234C1958.61 463.359 1962.29 463.359 1965.81 461.234C1971.05 458.046 1976.37 455.021 1981.69 451.996C1986.68 449.135 1991.67 446.274 1996.58 443.331C1999.12 441.86 2001.66 440.388 2004.2 438.917C2007.55 437.036 2010.82 435.156 2014.1 433.194C2018.44 430.497 2019.42 427.472 2019.34 423.63C2019.25 405.236 2019.25 386.598 2019.34 368.286L2019.34 368.123C2019.34 364.199 2018.44 361.256 2014.02 358.722C2008.21 355.452 2002.48 352.1 1996.75 348.748C1990.12 344.906 1983.49 341.146 1976.86 337.304C1976.78 337.222 1976.7 337.222 1976.62 337.14L1971.87 339.838C1972.69 340.655 1973.51 341.146 1974.41 341.636ZM2020.24 312.207C2021.46 312.861 2022.69 313.597 2023.92 314.251L2023.92 310L2020.24 312.207ZM1953.29 387.334C1949.61 389.868 1947.56 396.735 1949.36 400.659C1951.25 404.909 1955.91 407.934 1960.33 407.934C1964.18 407.934 1969.17 405.4 1971.3 400.577C1971.79 399.514 1972.03 398.288 1972.03 396.98C1972.03 393.138 1969.99 388.723 1966.88 386.68C1965.81 385.944 1964.59 385.372 1963.44 384.718L1962.05 383.982C1961.64 383.737 1961.15 383.655 1960.66 383.737C1960.41 383.737 1960.17 383.737 1959.92 383.737C1957.55 384.227 1955.83 385.535 1954.19 386.598L1953.29 387.334ZM1961.23 389.05C1962.29 389.623 1963.28 390.195 1964.34 390.767C1966.55 392.157 1968.02 396.571 1967.04 398.778C1965.73 401.639 1962.62 403.274 1960.33 403.274C1958.12 403.274 1955.01 401.721 1953.62 398.697C1953.46 398.288 1953.37 397.797 1953.37 397.225C1953.37 395.1 1954.52 392.157 1955.91 391.176L1956.89 390.522C1958.12 389.623 1959.18 388.887 1960.41 388.56L1961.23 389.05Z" fill="url(#paint1_linear_1_1895)" fill-opacity="0.6"/>
<g filter="url(#filter0_d_1_1895)">
<circle cx="519.5" cy="638.5" r="379.5" fill="url(#paint2_linear_1_1895)" shape-rendering="crispEdges"/>
</g>
<defs>
<filter id="filter0_d_1_1895" x="140" y="244" width="852" height="837" filterUnits="userSpaceOnUse" color-interpolation-filters="sRGB">
<feFlood flood-opacity="0" result="BackgroundImageFix"/>
<feColorMatrix in="SourceAlpha" type="matrix" values="0 0 0 0 0 0 0 0 0 0 0 0 0 0 0 0 0 0 127 0" result="hardAlpha"/>
<feOffset dx="54" dy="24"/>
<feGaussianBlur stdDeviation="19.5"/>
<feComposite in2="hardAlpha" operator="out"/>
<feColorMatrix type="matrix" values="0 0 0 0 0 0 0 0 0 0 0 0 0 0 0 0 0 0 0.02 0"/>
<feBlend mode="normal" in2="BackgroundImageFix" result="effect1_dropShadow_1_1895"/>
<feBlend mode="normal" in="SourceGraphic" in2="effect1_dropShadow_1_1895" result="shape"/>
</filter>
<linearGradient id="paint0_linear_1_1895" x1="519.5" y1="118.999" x2="519.5" y2="1158" gradientUnits="userSpaceOnUse">
<stop stop-color="white" stop-opacity="0.09"/>
<stop offset="1" stop-color="white" stop-opacity="0"/>
</linearGradient>
<linearGradient id="paint1_linear_1_1895" x1="1825.14" y1="1301.25" x2="1208.07" y2="482.949" gradientUnits="userSpaceOnUse">
<stop stop-color="#FF7200"/>
<stop offset="0.60144" stop-color="white" stop-opacity="0"/>
</linearGradient>
<linearGradient id="paint2_linear_1_1895" x1="519.5" y1="259" x2="519.5" y2="1018" gradientUnits="userSpaceOnUse">
<stop stop-color="white" stop-opacity="0.09"/>
<stop offset="1" stop-color="white" stop-opacity="0"/>
</linearGradient>
</defs>
</svg>
