<svg width="76" height="76" viewBox="0 0 76 76" fill="none" xmlns="http://www.w3.org/2000/svg">
<rect width="76" height="76" rx="22" fill="#F57005"/>
<path d="M26.9942 40.85C26.3708 40.549 25.6749 40.375 24.9375 40.375C22.3185 40.375 20.1875 42.506 20.1875 45.125C20.1875 47.744 22.3185 49.875 24.9375 49.875C26.581 49.875 28.0315 49.0354 28.8848 47.763L33.3717 50.0092C33.2945 50.3482 33.25 50.7003 33.25 51.0625C33.25 53.6815 35.381 55.8125 38 55.8125C40.619 55.8125 42.75 53.6815 42.75 51.0625C42.75 50.0781 42.449 49.1631 41.9336 48.4037L48.2386 41.8113C49.0295 42.3979 50.0044 42.75 51.0625 42.75C53.6815 42.75 55.8125 40.619 55.8125 38C55.8125 35.381 53.6815 33.25 51.0625 33.25C49.9664 33.25 48.9594 33.6264 48.1543 34.2522L41.7477 27.8457C42.3736 27.0406 42.75 26.0336 42.75 24.9375C42.75 22.3185 40.619 20.1875 38 20.1875C35.381 20.1875 33.25 22.3185 33.25 24.9375C33.25 25.2985 33.2939 25.6494 33.3711 25.9878L29.1602 27.5221C28.3706 25.9896 26.7763 24.9375 24.9375 24.9375C22.3185 24.9375 20.1875 27.0685 20.1875 29.6875C20.1875 32.3065 22.3185 34.4375 24.9375 34.4375C25.6132 34.4375 26.255 34.2938 26.8375 34.0379L29.0231 37.7162L26.9942 40.85ZM24.9375 48.6875C22.9728 48.6875 21.375 47.0897 21.375 45.125C21.375 43.1603 22.9728 41.5625 24.9375 41.5625C26.9022 41.5625 28.5 43.1603 28.5 45.125C28.5 47.0897 26.9022 48.6875 24.9375 48.6875ZM29.4138 46.699C29.5877 46.2056 29.6875 45.6772 29.6875 45.125C29.6875 43.6685 29.0273 42.3647 27.9923 41.493L29.7 38.8556L34.8484 47.519C34.4149 47.9049 34.0522 48.3669 33.7832 48.8864L29.4138 46.699ZM38 29.6875C39.0961 29.6875 40.1031 29.3111 40.9082 28.6853L47.3153 35.0924C46.9312 35.5864 46.6438 36.157 46.4782 36.7781L42.7482 36.2651C42.7476 36.2496 42.75 36.2342 42.75 36.2188C42.75 33.5997 40.619 31.4688 38 31.4688C36.3565 31.4688 34.9054 32.3083 34.0527 33.5807L33.3444 33.2268L35.9438 29.2125C36.5667 29.5135 37.2626 29.6875 38 29.6875ZM38.5938 46.3535V40.9272C40.5234 40.6849 42.0933 39.2825 42.5849 37.4407L46.3149 37.9537C46.3149 37.9691 46.3125 37.9846 46.3125 38C46.3125 39.1341 46.7127 40.1749 47.3783 40.9925L41.1439 47.5113C40.4451 46.892 39.5657 46.4758 38.5938 46.3535ZM38 32.6562C39.9647 32.6562 41.5625 34.254 41.5625 36.2188C41.5625 38.1835 39.9647 39.7812 38 39.7812C36.0353 39.7812 34.4375 38.1835 34.4375 36.2188C34.4375 34.254 36.0353 32.6562 38 32.6562ZM33.5237 34.6447C33.3498 35.1381 33.25 35.6666 33.25 36.2188C33.25 38.6365 35.0669 40.6339 37.4062 40.9278V46.3541C36.8434 46.4247 36.312 46.5933 35.8281 46.8433L30.4202 37.7429L32.6948 34.2303L33.5237 34.6447ZM38 54.625C36.0353 54.625 34.4375 53.0272 34.4375 51.0625C34.4375 49.0978 36.0353 47.5 38 47.5C39.9647 47.5 41.5625 49.0978 41.5625 51.0625C41.5625 53.0272 39.9647 54.625 38 54.625ZM51.0625 34.4375C53.0272 34.4375 54.625 36.0353 54.625 38C54.625 39.9647 53.0272 41.5625 51.0625 41.5625C49.0978 41.5625 47.5 39.9647 47.5 38C47.5 36.0353 49.0978 34.4375 51.0625 34.4375ZM38 21.375C39.9647 21.375 41.5625 22.9728 41.5625 24.9375C41.5625 26.9022 39.9647 28.5 38 28.5C36.0353 28.5 34.4375 26.9022 34.4375 24.9375C34.4375 22.9728 36.0353 21.375 38 21.375ZM33.7773 27.1029C34.0676 27.6664 34.4648 28.1645 34.9452 28.5695L32.2757 32.6925L29.4138 31.2615C29.5877 30.7681 29.6875 30.2397 29.6875 29.6875C29.6875 29.3265 29.6436 28.9756 29.5664 28.6372L33.7773 27.1029ZM21.375 29.6875C21.375 27.7228 22.9728 26.125 24.9375 26.125C26.9022 26.125 28.5 27.7228 28.5 29.6875C28.5 31.6522 26.9022 33.25 24.9375 33.25C22.9728 33.25 21.375 31.6522 21.375 29.6875ZM27.8558 33.4275C28.2536 33.1164 28.6027 32.7459 28.8848 32.3255L31.6261 33.6959L29.7433 36.6035L27.8558 33.4275Z" fill="white"/>
</svg>
