<svg width="18" height="18" viewBox="0 0 18 18" fill="none" xmlns="http://www.w3.org/2000/svg">
<g clip-path="url(#clip0_1_1911)">
<path d="M1.49998 9.75006L14.6895 9.75006L10.7197 13.7198C10.6481 13.789 10.591 13.8718 10.5517 13.9633C10.5123 14.0548 10.4917 14.1532 10.4908 14.2528C10.4899 14.3523 10.5089 14.4511 10.5466 14.5433C10.5843 14.6354 10.64 14.7192 10.7104 14.7896C10.7809 14.86 10.8646 14.9157 10.9568 14.9534C11.0489 14.9911 11.1477 15.0101 11.2473 15.0092C11.3469 15.0084 11.4453 14.9877 11.5368 14.9484C11.6283 14.9091 11.711 14.8519 11.7802 14.7803L17.0302 9.53031C17.1708 9.38967 17.2498 9.19893 17.2498 9.00006C17.2498 8.80119 17.1708 8.61046 17.0302 8.46981L11.7802 3.21981C11.6388 3.08319 11.4493 3.0076 11.2527 3.0093C11.056 3.01101 10.8679 3.08989 10.7289 3.22895C10.5898 3.368 10.5109 3.55611 10.5092 3.75276C10.5075 3.94941 10.5831 4.13886 10.7197 4.28031L14.6895 8.25006L1.49998 8.25006C1.30107 8.25006 1.1103 8.32908 0.969647 8.46973C0.828995 8.61038 0.749978 8.80115 0.749978 9.00006C0.749978 9.19897 0.828995 9.38974 0.969647 9.53039C1.1103 9.67104 1.30106 9.75006 1.49998 9.75006Z" fill="white"/>
</g>
<defs>
<clipPath id="clip0_1_1911">
<rect width="18" height="18" fill="white" transform="translate(18 18) rotate(-180)"/>
</clipPath>
</defs>
</svg>
