<svg width="76" height="76" viewBox="0 0 76 76" fill="none" xmlns="http://www.w3.org/2000/svg">
<rect width="76" height="76" rx="22" fill="#F57005"/>
<g clip-path="url(#clip0_1_1820)">
<path d="M55.8125 53.5468V47.9842C56.2085 47.8449 56.5424 47.57 56.755 47.208C56.9677 46.8461 57.0453 46.4206 56.9741 46.0069C56.903 45.5932 56.6877 45.218 56.3664 44.9479C56.0451 44.6778 55.6385 44.5301 55.2187 44.5311H52.1406C52.211 44.341 52.248 44.1401 52.25 43.9374C52.2489 43.5702 52.1341 43.2124 51.9215 42.9131C51.7089 42.6137 51.4088 42.3875 51.0625 42.2656V40.9686H52.951L51.9125 34.7392C52.1735 34.4885 52.364 34.1736 52.4649 33.8261C52.5658 33.4785 52.5737 33.1105 52.4876 32.759C52.4015 32.4075 52.2245 32.0848 51.9744 31.8232C51.7243 31.5616 51.4098 31.3704 51.0625 31.2687V28.6842L49.5164 28.0953L54.4423 26.1249L38 19.5479L21.5576 26.1249L28.5 28.9019V36.2186H26.125C25.1198 36.2176 24.1402 36.5357 23.3275 37.1273C22.5147 37.7189 21.9109 38.5533 21.603 39.5103C21.2952 40.4672 21.2992 41.4971 21.6144 42.4516C21.9297 43.4061 22.54 44.2358 23.3573 44.8211C21.9375 45.2693 20.7249 46.2108 19.9391 47.4754C19.1532 48.74 18.8458 50.244 19.0726 51.7155C19.2994 53.187 20.0454 54.5288 21.1756 55.498C22.3057 56.4673 23.7455 57 25.2344 56.9999H55.2187C55.6385 57.0009 56.0451 56.8532 56.3664 56.5831C56.6877 56.313 56.903 55.9378 56.9741 55.5241C57.0453 55.1104 56.9677 54.6849 56.755 54.323C56.5424 53.961 56.2085 53.6861 55.8125 53.5468ZM54.625 49.2811H43.9375V50.4686H54.625V53.4374H25.1291C24.4205 53.4374 23.7409 53.1559 23.2398 52.6548C22.7388 52.1537 22.4573 51.4741 22.4573 50.7655C22.4573 50.0569 22.7388 49.3773 23.2398 48.8762C23.7409 48.3751 24.4205 48.0936 25.1291 48.0936H54.625V49.2811ZM49.875 42.1561H26.125C25.81 42.1561 25.508 42.031 25.2853 41.8083C25.0626 41.5856 24.9375 41.2836 24.9375 40.9686C24.9375 40.6537 25.0626 40.3516 25.2853 40.1289C25.508 39.9062 25.81 39.7811 26.125 39.7811H33.2354C34.7897 40.1923 36.3923 40.3921 38 40.3749C39.6076 40.3921 41.2103 40.1924 42.7645 39.7811H48.1845L47.9864 40.9686H49.875V42.1561ZM47.1728 37.4061H48.5806L48.3826 38.5936H45.6364C46.1997 38.2689 46.7165 37.8694 47.1728 37.4061ZM51.5488 39.7811H49.3885L50.1362 35.2944C50.3556 35.3392 50.5818 35.3392 50.8012 35.2944L51.5488 39.7811ZM51.3594 33.2499C51.3594 33.426 51.3071 33.5982 51.2093 33.7447C51.1114 33.8911 50.9723 34.0053 50.8096 34.0727C50.6468 34.1401 50.4677 34.1578 50.295 34.1234C50.1222 34.089 49.9635 34.0042 49.839 33.8796C49.7144 33.7551 49.6296 33.5964 49.5952 33.4236C49.5609 33.2509 49.5785 33.0718 49.6459 32.9091C49.7133 32.7463 49.8275 32.6072 49.9739 32.5094C50.1204 32.4115 50.2926 32.3593 50.4687 32.3593C50.7049 32.3595 50.9312 32.4534 51.0982 32.6204C51.2652 32.7874 51.3591 33.0138 51.3594 33.2499ZM49.875 29.5033V31.269C49.5277 31.3707 49.2132 31.5619 48.9631 31.8235C48.713 32.0851 48.536 32.4078 48.4499 32.7593C48.3638 33.1108 48.3716 33.4788 48.4725 33.8264C48.5735 34.1739 48.764 34.4888 49.025 34.7395L48.7783 36.2186H47.5V28.9019L47.8888 28.7463L49.875 29.5033ZM38 20.8269L51.2451 26.1249L47.8786 27.4714L38.2114 23.7887L37.7886 24.8985L46.2511 28.1226L38 31.4229L24.7548 26.1249L38 20.8269ZM38 32.7019L46.3125 29.3769V36.5874C45.7805 37.1389 43.4359 39.1874 38 39.1874C32.5583 39.1874 30.2145 37.1342 29.6875 36.588V29.3769L38 32.7019ZM22.5625 40.9686C22.5635 40.0241 22.9392 39.1186 23.6071 38.4507C24.2749 37.7828 25.1805 37.4072 26.125 37.4061H28.8271C29.2834 37.8694 29.8002 38.2689 30.3636 38.5936H26.125C25.4951 38.5936 24.891 38.8439 24.4456 39.2893C24.0002 39.7347 23.75 40.3387 23.75 40.9686C23.75 41.5985 24.0002 42.2026 24.4456 42.648C24.891 43.0934 25.4951 43.3436 26.125 43.3436H50.4687C50.6262 43.3436 50.7772 43.4062 50.8886 43.5175C50.9999 43.6289 51.0625 43.7799 51.0625 43.9374C51.0625 44.0949 50.9999 44.2459 50.8886 44.3572C50.7772 44.4686 50.6262 44.5311 50.4687 44.5311H26.125C25.1805 44.5301 24.2749 44.1544 23.6071 43.4866C22.9392 42.8187 22.5635 41.9131 22.5625 40.9686ZM55.2187 55.8124H25.2344C23.8958 55.8124 22.6121 55.2807 21.6657 54.3342C20.7192 53.3877 20.1875 52.104 20.1875 50.7655C20.1875 49.427 20.7192 48.1433 21.6657 47.1968C22.6121 46.2504 23.8958 45.7186 25.2344 45.7186H55.2187C55.3762 45.7186 55.5272 45.7812 55.6386 45.8925C55.7499 46.0039 55.8125 46.1549 55.8125 46.3124C55.8125 46.4699 55.7499 46.6209 55.6386 46.7322C55.5272 46.8436 55.3762 46.9061 55.2187 46.9061H25.1291C24.1056 46.9061 23.1239 47.3127 22.4001 48.0365C21.6764 48.7603 21.2698 49.7419 21.2698 50.7655C21.2698 51.7891 21.6764 52.7707 22.4001 53.4945C23.1239 54.2183 24.1056 54.6249 25.1291 54.6249H55.2187C55.3762 54.6249 55.5272 54.6874 55.6386 54.7988C55.7499 54.9101 55.8125 55.0612 55.8125 55.2186C55.8125 55.3761 55.7499 55.5271 55.6386 55.6385C55.5272 55.7498 55.3762 55.8124 55.2187 55.8124Z" fill="white"/>
<path d="M41.5625 51.0625H24.9375V52.25H41.5625V51.0625Z" fill="white"/>
</g>
<defs>
<clipPath id="clip0_1_1820">
<rect width="38" height="38" fill="white" transform="translate(19 19)"/>
</clipPath>
</defs>
</svg>
