<svg width="76" height="76" viewBox="0 0 76 76" fill="none" xmlns="http://www.w3.org/2000/svg">
<rect width="76" height="76" rx="22" fill="#4F5DE4"/>
<g clip-path="url(#clip0_1_1836)">
<path d="M38 24.0669C38.3498 24.0669 38.6334 23.7833 38.6334 23.4336V19.6334C38.6334 19.2836 38.3498 19 38 19C37.6503 19 37.3667 19.2836 37.3667 19.6334V23.4336C37.3667 23.7833 37.6502 24.0669 38 24.0669Z" fill="white"/>
<path d="M28.5844 22.3232L30.4845 25.6167C30.6574 25.9208 31.0441 26.0272 31.3482 25.8543C31.6523 25.6814 31.7586 25.2947 31.5857 24.9906C31.5843 24.9881 31.5829 24.9858 31.5815 24.9833L29.6814 21.6898C29.5085 21.3857 29.1218 21.2794 28.8177 21.4523C28.5136 21.6252 28.4073 22.0119 28.5802 22.316C28.5816 22.3184 28.583 22.3209 28.5844 22.3232Z" fill="white"/>
<path d="M22.3248 29.049L25.6183 30.9491C25.9224 31.122 26.3091 31.0157 26.482 30.7116C26.6533 30.4104 26.5507 30.0274 26.2517 29.8521L22.9582 27.952C22.6541 27.7791 22.2674 27.8855 22.0945 28.1896C21.9232 28.4908 22.0258 28.8737 22.3248 29.049Z" fill="white"/>
<path d="M24.6993 37.3677C24.6993 37.018 24.4158 36.7344 24.066 36.7344H20.2658C19.916 36.7344 19.6324 37.018 19.6324 37.3677C19.6324 37.7175 19.916 38.0011 20.2658 38.0011H24.066C24.4158 38.0011 24.6993 37.7175 24.6993 37.3677Z" fill="white"/>
<path d="M25.6232 43.7818C25.6207 43.7832 25.6183 43.7846 25.6158 43.7861L22.3223 45.6862C22.0182 45.859 21.9118 46.2457 22.0847 46.5498C22.2575 46.8539 22.6442 46.9603 22.9483 46.7874C22.9507 46.786 22.9532 46.7846 22.9556 46.7832L26.2491 44.8831C26.5532 44.7102 26.6596 44.3236 26.4868 44.0195C26.314 43.7154 25.9273 43.609 25.6232 43.7818Z" fill="white"/>
<path d="M53.6752 45.6862L50.3817 43.7861C50.08 43.6091 49.6919 43.7103 49.515 44.012C49.338 44.3138 49.4392 44.7019 49.7409 44.8788C49.7434 44.8802 49.7458 44.8817 49.7483 44.8831L53.0418 46.7832C53.3459 46.956 53.7325 46.8496 53.9054 46.5455C54.0766 46.2443 53.9741 45.8615 53.6752 45.6862Z" fill="white"/>
<path d="M55.7343 36.7344H51.9341C51.5843 36.7344 51.3007 37.018 51.3007 37.3677C51.3007 37.7175 51.5843 38.0011 51.9341 38.0011H55.7343C56.0841 38.0011 56.3677 37.7175 56.3677 37.3677C56.3677 37.018 56.0841 36.7344 55.7343 36.7344Z" fill="white"/>
<path d="M50.0682 31.034C50.1794 31.034 50.2886 31.0047 50.3849 30.9491L53.6784 29.049C53.9802 28.8721 54.0814 28.484 53.9045 28.1823C53.7292 27.8834 53.3463 27.7807 53.045 27.952L49.7515 29.8521C49.4486 30.027 49.3448 30.4144 49.5197 30.7173C49.6328 30.9132 49.8419 31.034 50.0682 31.034Z" fill="white"/>
<path d="M44.6504 25.8486C44.9533 26.0235 45.3407 25.9197 45.5156 25.6168L47.4157 22.3233C47.5926 22.0215 47.4914 21.6334 47.1897 21.4565C46.888 21.2795 46.4999 21.3807 46.323 21.6824C46.3215 21.6849 46.3201 21.6874 46.3187 21.6898L44.4186 24.9833C44.2436 25.2863 44.3474 25.6737 44.6504 25.8486Z" fill="white"/>
<path d="M38 27.8672C32.7555 27.8731 28.5055 32.1232 28.4995 37.3677C28.4995 37.7175 28.7831 38.001 29.1329 38.001C29.4827 38.001 29.7663 37.7175 29.7663 37.3677C29.7715 32.8225 33.4548 29.1391 38 29.1339C38.3498 29.1339 38.6334 28.8503 38.6334 28.5006C38.6334 28.1508 38.3498 27.8672 38 27.8672Z" fill="white"/>
<path d="M49.5907 40.5939V40.5907C49.6109 40.5274 49.6293 40.459 49.6451 40.3969C49.6679 40.3095 49.6869 40.2215 49.7085 40.1334C49.73 40.0454 49.7503 39.9574 49.7623 39.8871C51.1665 33.3909 47.0388 26.9864 40.5427 25.5821C34.0466 24.1777 27.6421 28.3056 26.2377 34.8017C26.0555 35.6448 25.9644 36.505 25.9661 37.3675C25.9661 37.6494 25.9781 37.9293 25.9978 38.2074C26.0079 38.3613 26.0231 38.5177 26.0421 38.6818C26.0776 39.0048 26.1232 39.3253 26.1846 39.6426C26.1897 39.6685 26.1916 39.6951 26.1985 39.7211C26.2264 39.8661 26.2619 40.0068 26.2954 40.1474C26.3151 40.2291 26.3341 40.3108 26.355 40.3918C26.3645 40.426 26.3695 40.4552 26.3803 40.4944C26.4056 40.5888 26.4354 40.6781 26.4633 40.7706C26.493 40.8732 26.5215 40.9758 26.5545 41.0771L26.5583 41.0892C26.6153 41.2735 26.6799 41.4527 26.7578 41.6522C26.7724 41.6909 26.7876 41.7289 26.8028 41.7669C26.8167 41.8141 26.835 41.8598 26.8572 41.9037L26.8604 41.9113C26.9028 42.024 26.9522 42.1361 27.0016 42.2413L27.0099 42.2571C27.0415 42.3287 27.0732 42.3996 27.1074 42.4712C27.1232 42.5067 27.1384 42.5459 27.1543 42.5782C27.3239 42.9358 27.513 43.2838 27.7205 43.6207L27.7794 43.7145C27.8174 43.7778 27.8561 43.8412 27.8947 43.895L27.9726 44.0109C28.0106 44.0666 28.0499 44.123 28.0885 44.1787C28.1164 44.2193 28.1423 44.2598 28.1708 44.2997C28.1848 44.3225 28.1981 44.3447 28.2158 44.3688C28.2291 44.3865 28.2437 44.4042 28.2576 44.422C28.2823 44.4562 28.3076 44.4853 28.3323 44.5189C28.4362 44.6595 28.5414 44.7988 28.649 44.935L28.6566 44.9451C28.6769 44.9692 28.6978 44.992 28.72 45.0161C28.8466 45.1693 28.9733 45.3213 29.1095 45.4689H29.1127C29.2254 45.5956 29.3451 45.7147 29.4642 45.835C29.5022 45.8724 29.537 45.9123 29.575 45.9496C29.5915 45.9655 29.606 45.9832 29.6225 45.999C29.7935 46.1637 29.9709 46.3214 30.1463 46.4772C30.4788 46.7687 30.8295 47.0386 31.1964 47.2854C31.2621 47.3596 31.3444 47.4173 31.4365 47.4539L31.6841 49.2982C31.6752 49.332 31.6692 49.3666 31.6664 49.4015C31.6681 49.4989 31.6926 49.5946 31.738 49.6808L32.2041 53.1466C32.2118 53.2063 32.2282 53.2645 32.2529 53.3195C32.3869 53.6225 32.5484 53.9125 32.7355 54.1859V54.1904L32.7406 54.1961C34.6869 57.0983 38.6175 57.8733 41.5197 55.927C42.2039 55.4682 42.7919 54.8802 43.2507 54.1961L43.2557 54.1904L43.2589 54.1859C43.446 53.9125 43.6075 53.6225 43.7415 53.3195C43.7662 53.2645 43.7826 53.2063 43.7903 53.1466L44.556 47.4532C44.6004 47.4384 44.6428 47.4186 44.6827 47.3943C47.0725 45.7929 48.8101 43.3889 49.5812 40.6173C49.5869 40.6097 49.5907 40.6021 49.5907 40.5939ZM34.6546 54.4684H41.3455C39.4349 56.1574 36.5651 56.1574 34.6546 54.4684ZM42.5527 52.885C42.5026 52.9927 42.4475 53.0984 42.3886 53.2017H33.6114C33.5525 53.0991 33.4974 52.9933 33.4473 52.885L33.0641 50.0348H42.9358L42.5527 52.885ZM43.105 48.7757C43.0917 48.7751 43.0803 48.7681 43.067 48.7681H32.8938L32.7235 47.5014H43.2766L43.105 48.7757ZM36.7333 46.2346V40.3038L37.6257 40.9467C37.8469 41.106 38.145 41.106 38.3661 40.9467L39.2668 40.2981V46.2346H36.7333ZM48.7432 38.0642C48.7312 38.2593 48.7134 38.448 48.69 38.6381V38.6526C48.6822 38.6872 48.6769 38.7224 48.6742 38.7578V38.7704C48.6704 38.7894 48.6678 38.8084 48.6653 38.8287C48.6628 38.849 48.6615 38.8604 48.6596 38.8775C48.6596 38.8958 48.6545 38.9136 48.652 38.9319C48.6381 39.0301 48.6235 39.1276 48.6064 39.2252C48.5982 39.2695 48.5918 39.3107 48.5811 39.3607C48.5709 39.4279 48.5551 39.5001 48.5317 39.6077V39.6191C48.5158 39.6951 48.4994 39.7711 48.4816 39.8465C48.4753 39.8719 48.4709 39.8934 48.4633 39.9219C48.442 40.026 48.4153 40.1289 48.3835 40.2303C48.3714 40.2753 48.3581 40.3203 48.3455 40.3652C48.3144 40.4799 48.2821 40.592 48.239 40.7142C48.1871 40.8764 48.1358 41.0385 48.0725 41.1937L48.0478 41.257C48.0182 41.3394 47.9844 41.4201 47.9464 41.499C47.9326 41.5263 47.9209 41.5547 47.9116 41.5838L47.8989 41.6123C47.8426 41.7542 47.7799 41.8898 47.6988 42.0557C47.6532 42.1583 47.6025 42.2552 47.5518 42.3521L47.4752 42.5035C46.6625 44.0013 45.5049 45.2842 44.0981 46.246C44.0652 46.2394 44.0317 46.2356 43.998 46.2346H40.5335V40.9106L40.5842 40.9467C40.805 41.1053 41.1025 41.1053 41.3233 40.9467L42.8029 39.8839C43.0926 39.6878 43.1685 39.2941 42.9724 39.0044C42.7763 38.7147 42.3825 38.6388 42.0929 38.8349C42.0832 38.8414 42.0737 38.8483 42.0644 38.8553L40.9534 39.6527L39.8431 38.8553C39.6222 38.6963 39.3243 38.6963 39.1034 38.8553L37.9962 39.6521L36.8891 38.8553C36.668 38.696 36.3698 38.696 36.1487 38.8553L35.0422 39.6521L33.937 38.8553C33.6532 38.6506 33.2572 38.7149 33.0525 38.9988C32.8478 39.2826 32.9121 39.6786 33.196 39.8833L34.6717 40.9467C34.8928 41.106 35.191 41.106 35.4121 40.9467L35.4666 40.9074V46.2346H32.0021C31.9751 46.235 31.9483 46.2369 31.9216 46.2403C31.2378 45.7721 30.6098 45.227 30.05 44.6158C29.9291 44.484 29.8119 44.3447 29.6941 44.2022C29.6725 44.1762 29.6491 44.1509 29.6276 44.1243C29.5205 43.9976 29.4224 43.8633 29.3248 43.7278C29.2875 43.6771 29.2476 43.6283 29.2115 43.577V43.5732C29.2064 43.5656 29.202 43.5587 29.1969 43.5523L29.176 43.5213C29.1595 43.4998 29.1462 43.4776 29.1304 43.458C28.9828 43.2439 28.8454 43.0235 28.7136 42.7999C28.587 42.5871 28.4723 42.3736 28.3659 42.1564C28.3235 42.0722 28.2798 41.9886 28.2392 41.9031C28.2272 41.8733 28.2126 41.8397 28.205 41.8214L28.174 41.758L28.1664 41.7428V41.7396C28.0118 41.3949 27.8758 41.042 27.7591 40.6826C27.7477 40.6484 27.737 40.6123 27.7256 40.5774C27.6679 40.3931 27.6141 40.2069 27.566 40.0182C27.566 40.008 27.5603 39.9985 27.5584 39.9884C27.5546 39.9631 27.5495 39.9379 27.5432 39.913C27.5318 39.87 27.5235 39.825 27.5134 39.7819C27.483 39.6502 27.4501 39.5191 27.426 39.3861C27.426 39.3715 27.4228 39.3569 27.4203 39.3424C27.3867 39.1694 27.357 38.9902 27.3354 38.811C27.3349 38.7716 27.3299 38.7325 27.3202 38.6944C27.3202 38.6811 27.3158 38.6596 27.312 38.6374C27.2886 38.4474 27.2715 38.2625 27.2588 38.0579C27.2385 37.828 27.2328 37.5974 27.2328 37.3675C27.2395 31.4237 32.0562 26.6069 38 26.6003C43.9439 26.6069 48.7606 31.4237 48.7673 37.3675C48.7673 37.5974 48.7616 37.828 48.7432 38.0642Z" fill="white"/>
</g>
<defs>
<clipPath id="clip0_1_1836">
<rect width="38" height="38" fill="white" transform="translate(19 19)"/>
</clipPath>
</defs>
</svg>
