<svg width="76" height="76" viewBox="0 0 76 76" fill="none" xmlns="http://www.w3.org/2000/svg">
<rect width="76" height="76" rx="22" fill="#F57005"/>
<path d="M56.7546 28.1219L48.113 21.7987C47.9706 21.6939 47.7889 21.658 47.6173 21.7008L37.2361 24.3339C36.9183 24.4149 36.7263 24.7382 36.8073 25.0559C36.8413 25.1891 36.9204 25.3064 37.0312 25.3877L39.7801 27.3945L39.1864 30.4046C38.8628 32.0849 41.5612 34.7448 45.1978 35.4512C45.8356 35.5744 46.4837 35.636 47.1333 35.6353C48.1291 35.6416 49.1195 35.4872 50.0662 35.1782C51.5208 34.6943 52.4915 33.8868 52.6608 33.023L53.2546 30.0217L56.5526 29.1875C56.8704 29.1065 57.0623 28.7833 56.9814 28.4656C56.9474 28.3324 56.8683 28.2151 56.7575 28.1337L56.7546 28.1219ZM51.5031 32.7945C51.4348 33.1418 50.7907 33.685 49.6952 34.0502C48.312 34.4832 46.8423 34.5628 45.4205 34.2817C42.0808 33.6316 40.2165 31.3725 40.3739 30.6304L40.8518 28.1694L45.6728 31.708C45.7744 31.7828 45.897 31.8233 46.0231 31.8238C46.0734 31.8241 46.1234 31.8171 46.1716 31.803L51.9781 30.3336L51.5031 32.7945ZM46.1597 30.5858L38.753 25.1711L47.638 22.9208L55.0357 28.3326L46.1597 30.5858Z" fill="white"/>
<path d="M33.5164 35.7481C33.3347 35.853 33.2219 36.046 33.2195 36.2558V46.8477C33.2219 47.0575 33.3347 47.2504 33.5164 47.3553C33.6057 47.4105 33.7084 47.4403 33.8133 47.4414C33.9092 47.4423 34.004 47.4199 34.0893 47.3761L44.2123 42.0771C44.5025 41.9244 44.6139 41.5654 44.4612 41.2753C44.4053 41.169 44.3185 41.0822 44.2123 41.0263L34.0983 35.7273C33.914 35.6322 33.6935 35.64 33.5164 35.7481ZM34.407 37.2324L42.6568 41.5517L34.416 45.868L34.407 37.2324Z" fill="white"/>
<path d="M55.2169 50.7545H52.1682C52.221 50.5884 52.2479 50.4151 52.2483 50.2409V36.5052C52.2483 36.1773 51.9825 35.9114 51.6546 35.9114C51.3266 35.9114 51.0608 36.1773 51.0608 36.5052V50.2408C51.0559 50.5294 50.8181 50.7593 50.5295 50.7544C50.5295 50.7544 50.5295 50.7544 50.5294 50.7544H24.2811C23.9926 50.7593 23.7547 50.5295 23.7497 50.241C23.7497 50.2409 23.7497 50.2409 23.7497 50.2408V32.2689C23.7546 31.9804 23.9925 31.7505 24.281 31.7554H24.2811H37.4053C37.7332 31.7554 37.999 31.4895 37.999 31.1616C37.999 30.8337 37.7332 30.5679 37.4053 30.5679H24.2811C23.3374 30.5646 22.5688 31.3252 22.5623 32.2689V50.2408C22.5626 50.4151 22.5896 50.5882 22.6424 50.7543H19.5938C19.2658 50.7543 19 51.0202 19 51.3481V51.4965C19 52.8324 20.0509 54.3167 21.4609 54.3167H53.3496C54.7597 54.3167 55.8106 52.8324 55.8106 51.4965V51.3481C55.8106 51.0203 55.5447 50.7545 55.2169 50.7545ZM53.3496 53.1293H21.4609C20.9474 53.1293 20.4249 52.5831 20.2498 51.9419H54.5608C54.3857 52.5831 53.8632 53.1293 53.3496 53.1293Z" fill="white"/>
</svg>
