<svg width="10" height="10" viewBox="0 0 10 10" fill="none" xmlns="http://www.w3.org/2000/svg">
<g clip-path="url(#clip0_1_1829)">
<path d="M5.96323 4.99789L2.22225 8.73902C2.11925 8.84179 2.06258 8.97919 2.06258 9.12569C2.06258 9.27228 2.11925 9.40959 2.22225 9.51252L2.55006 9.84016C2.6529 9.94325 2.79038 10 2.93689 10C3.08339 10 3.22071 9.94325 3.32364 9.84016L7.77786 5.38602C7.8812 5.28276 7.93778 5.1448 7.93738 4.99813C7.93778 4.85081 7.88128 4.71301 7.77786 4.60967L3.32778 0.159838C3.22485 0.0567488 3.08754 4.23986e-07 2.94095 4.36801e-07C2.79445 4.49609e-07 2.65713 0.0567489 2.55412 0.159838L2.2264 0.487481C2.01315 0.700733 2.01315 1.04789 2.2264 1.26106L5.96323 4.99789Z" fill="#4F5DE4"/>
</g>
<defs>
<clipPath id="clip0_1_1829">
<rect width="10" height="10" fill="white" transform="translate(10 10) rotate(180)"/>
</clipPath>
</defs>
</svg>
