<svg width="10" height="10" viewBox="0 0 10 10" fill="none" xmlns="http://www.w3.org/2000/svg">
<g clip-path="url(#clip0_1_1857)">
<path d="M5.96324 4.99789L2.22227 8.73902C2.11926 8.84179 2.06259 8.97919 2.06259 9.12569C2.06259 9.27228 2.11926 9.40959 2.22227 9.51252L2.55007 9.84016C2.65292 9.94325 2.7904 10 2.9369 10C3.08341 10 3.22072 9.94325 3.32365 9.84016L7.77788 5.38602C7.88121 5.28276 7.9378 5.1448 7.93739 4.99813C7.9378 4.85081 7.88129 4.71301 7.77788 4.60967L3.3278 0.159838C3.22487 0.0567488 3.08755 4.23986e-07 2.94097 4.36801e-07C2.79446 4.49609e-07 2.65715 0.0567489 2.55414 0.159838L2.22641 0.487481C2.01316 0.700733 2.01316 1.04789 2.22641 1.26106L5.96324 4.99789Z" fill="#4F5DE4"/>
</g>
<defs>
<clipPath id="clip0_1_1857">
<rect width="10" height="10" fill="white" transform="translate(10 10) rotate(180)"/>
</clipPath>
</defs>
</svg>
