<svg width="10" height="10" viewBox="0 0 10 10" fill="none" xmlns="http://www.w3.org/2000/svg">
<g clip-path="url(#clip0_1_1890)">
<path d="M5.96326 4.99789L2.22228 8.73902C2.11928 8.84179 2.06261 8.97919 2.06261 9.12569C2.06261 9.27228 2.11928 9.40959 2.22228 9.51252L2.55009 9.84016C2.65293 9.94325 2.79041 10 2.93692 10C3.08342 10 3.22074 9.94325 3.32367 9.84016L7.77789 5.38602C7.88123 5.28276 7.93781 5.1448 7.93741 4.99813C7.93781 4.85081 7.88131 4.71301 7.77789 4.60967L3.32781 0.159838C3.22489 0.0567488 3.08757 4.23986e-07 2.94098 4.36801e-07C2.79448 4.49609e-07 2.65716 0.0567489 2.55415 0.159838L2.22643 0.487481C2.01318 0.700733 2.01318 1.04789 2.22643 1.26106L5.96326 4.99789Z" fill="#4F5DE4"/>
</g>
<defs>
<clipPath id="clip0_1_1890">
<rect width="10" height="10" fill="white" transform="translate(10 10) rotate(180)"/>
</clipPath>
</defs>
</svg>
